<svg width="97" height="97" viewBox="0 0 97 97" fill="none" xmlns="http://www.w3.org/2000/svg">
<g clip-path="url(#clip0_371_8459)">
<path d="M96.9901 48.5L92.4949 54.2924L95.3438 61.0518L89.508 65.4824L90.5037 72.7451L83.7117 75.508L82.7949 82.7904L75.5298 83.7081L72.7696 90.4971L65.5045 89.5104L61.0784 95.3521L54.3258 92.5003L48.5393 96.9901L42.7529 92.5003L36.0003 95.3521L31.5742 89.5104L24.3091 90.4971L21.5489 83.7081L14.2837 82.7904L13.367 75.508L6.57501 72.7451L7.57064 65.4824L1.73486 61.0518L4.58375 54.2924L0.088623 48.5L4.58375 42.6978L1.73486 35.9384L7.57064 31.5077L6.57501 24.2451L13.367 21.4821L14.2837 14.1997L21.5489 13.282L24.3091 6.49298L31.5742 7.47976L36.0003 1.63805L42.7529 4.48983L48.5393 0L54.3258 4.48983L61.0784 1.63805L65.5045 7.47976L72.7696 6.49298L75.5298 13.282L82.7949 14.1997L83.7117 21.4821L90.5037 24.2451L89.508 31.5077L95.3438 35.9384L92.4949 42.6978L96.9901 48.5Z" fill="#10AA99"/>
<path d="M39.4998 67.6336L28.676 56.7988L32.7177 52.753L39.2829 59.3249L64.2526 31.5966L68.5012 35.4252L39.4998 67.6336Z" fill="white"/>
</g>
<defs>
<clipPath id="clip0_371_8459">
<rect width="97" height="97" fill="white"/>
</clipPath>
</defs>
</svg>
