<svg width="29" height="30" viewBox="0 0 29 30" fill="none" xmlns="http://www.w3.org/2000/svg">
<path d="M24.6679 4.76637C22.3001 2.37957 19.1751 0.894909 15.8314 0.568329C12.4878 0.241749 9.1352 1.09372 6.35157 2.97736C3.56794 4.86101 1.52775 7.65828 0.582724 10.8869C-0.362302 14.1156 -0.152938 17.5733 1.17472 20.6639C1.3131 20.9511 1.3585 21.2745 1.3046 21.5888L0.0346971 27.7021C-0.0142285 27.9365 -0.00423778 28.1794 0.0637715 28.409C0.131781 28.6385 0.255677 28.8476 0.424326 29.0173C0.562578 29.1547 0.727189 29.2627 0.908237 29.3348C1.08928 29.4068 1.28302 29.4414 1.47777 29.4364H1.76638L7.94272 28.1935C8.25663 28.1557 8.57496 28.2005 8.86629 28.3236C11.9523 29.6532 15.4048 29.8629 18.6286 28.9165C21.8525 27.97 24.6456 25.9268 26.5264 23.139C28.4072 20.3512 29.2579 16.9936 28.9318 13.6449C28.6057 10.2963 27.1233 7.16658 24.7401 4.79527L24.6679 4.76637ZM8.69312 16.4294C8.40771 16.4294 8.1287 16.3446 7.89139 16.1858C7.65408 16.027 7.46912 15.8013 7.3599 15.5372C7.25067 15.2731 7.2221 14.9825 7.27778 14.7022C7.33346 14.4218 7.4709 14.1643 7.67271 13.9622C7.87453 13.7601 8.13166 13.6224 8.41159 13.5667C8.69152 13.5109 8.98167 13.5395 9.24536 13.6489C9.50905 13.7583 9.73442 13.9435 9.89299 14.1812C10.0516 14.4189 10.1362 14.6983 10.1362 14.9841C10.1362 15.3674 9.98415 15.735 9.71352 16.0061C9.44289 16.2771 9.07584 16.4294 8.69312 16.4294ZM14.4654 16.4294C14.18 16.4294 13.901 16.3446 13.6637 16.1858C13.4264 16.027 13.2414 15.8013 13.1322 15.5372C13.023 15.2731 12.9944 14.9825 13.0501 14.7022C13.1057 14.4218 13.2432 14.1643 13.445 13.9622C13.6468 13.7601 13.9039 13.6224 14.1839 13.5667C14.4638 13.5109 14.754 13.5395 15.0176 13.6489C15.2813 13.7583 15.5067 13.9435 15.6653 14.1812C15.8238 14.4189 15.9085 14.6983 15.9085 14.9841C15.9085 15.3674 15.7564 15.735 15.4858 16.0061C15.2152 16.2771 14.8481 16.4294 14.4654 16.4294ZM20.2377 16.4294C19.9523 16.4294 19.6733 16.3446 19.436 16.1858C19.1986 16.027 19.0137 15.8013 18.9045 15.5372C18.7952 15.2731 18.7667 14.9825 18.8223 14.7022C18.878 14.4218 19.0155 14.1643 19.2173 13.9622C19.4191 13.7601 19.6762 13.6224 19.9562 13.5667C20.2361 13.5109 20.5262 13.5395 20.7899 13.6489C21.0536 13.7583 21.279 13.9435 21.4376 14.1812C21.5961 14.4189 21.6808 14.6983 21.6808 14.9841C21.6808 15.3674 21.5287 15.735 21.2581 16.0061C20.9875 16.2771 20.6204 16.4294 20.2377 16.4294Z" fill="white" fill-opacity="0.3"/>
</svg>
