<svg width="31" height="30" viewBox="0 0 31 30" fill="none" xmlns="http://www.w3.org/2000/svg">
<path d="M15.7319 6.10352e-05C12.7652 6.10352e-05 9.86512 0.879795 7.39839 2.52802C4.93165 4.17624 3.00906 6.51892 1.87375 9.25981C0.738433 12.0007 0.441383 15.0167 1.02016 17.9264C1.59894 20.8361 3.02755 23.5089 5.12534 25.6067C7.22312 27.7044 9.89587 29.1331 12.8056 29.7118C15.7153 30.2906 18.7313 29.9936 21.4722 28.8582C24.2131 27.7229 26.5558 25.8003 28.204 23.3336C29.8522 20.8669 30.7319 17.9668 30.7319 15.0001C30.7319 11.0218 29.1516 7.2065 26.3385 4.39346C23.5255 1.58041 19.7102 6.10352e-05 15.7319 6.10352e-05ZM21.1865 16.3637H15.7319C15.3703 16.3637 15.0234 16.22 14.7677 15.9643C14.512 15.7086 14.3683 15.3617 14.3683 15.0001V6.81824C14.3683 6.45658 14.512 6.10974 14.7677 5.85401C15.0234 5.59827 15.3703 5.45461 15.7319 5.45461C16.0936 5.45461 16.4404 5.59827 16.6962 5.85401C16.9519 6.10974 17.0956 6.45658 17.0956 6.81824V13.6364H21.1865C21.5481 13.6364 21.895 13.7801 22.1507 14.0358C22.4064 14.2916 22.5501 14.6384 22.5501 15.0001C22.5501 15.3617 22.4064 15.7086 22.1507 15.9643C21.895 16.22 21.5481 16.3637 21.1865 16.3637Z" fill="white" fill-opacity="0.3"/>
</svg>
