<svg width="19" height="25" viewBox="0 0 19 25" fill="none" xmlns="http://www.w3.org/2000/svg">
<path d="M17 6H10.475V18.043L12.293 16.225C12.3858 16.1322 12.4961 16.0585 12.6174 16.0083C12.7387 15.958 12.8687 15.9322 13 15.9322C13.1313 15.9322 13.2613 15.958 13.3826 16.0083C13.5039 16.0585 13.6142 16.1322 13.707 16.225C13.7998 16.3178 13.8735 16.4281 13.9237 16.5494C13.974 16.6707 13.9998 16.8007 13.9998 16.932C13.9998 17.0633 13.974 17.1933 13.9237 17.3146C13.8735 17.4359 13.7998 17.5462 13.707 17.639L10.207 21.139C10.1143 21.2322 10.0042 21.3061 9.88285 21.3566C9.76152 21.4071 9.63141 21.433 9.5 21.433C9.36859 21.433 9.23848 21.4071 9.11715 21.3566C8.99581 21.3061 8.88565 21.2322 8.793 21.139L5.293 17.639C5.20016 17.5462 5.12651 17.4359 5.07626 17.3146C5.02601 17.1933 5.00015 17.0633 5.00015 16.932C5.00015 16.8007 5.02601 16.6707 5.07626 16.5494C5.12651 16.4281 5.20016 16.3178 5.293 16.225C5.38584 16.1322 5.49607 16.0585 5.61737 16.0083C5.73868 15.958 5.8687 15.9322 6 15.9322C6.1313 15.9322 6.26132 15.958 6.38263 16.0083C6.50393 16.0585 6.61416 16.1322 6.707 16.225L8.475 17.993V6H2C1.46957 6 0.960859 6.21071 0.585786 6.58579C0.210714 6.96086 0 7.46957 0 8V23C0 23.5304 0.210714 24.0391 0.585786 24.4142C0.960859 24.7893 1.46957 25 2 25H17C17.5304 25 18.0391 24.7893 18.4142 24.4142C18.7893 24.0391 19 23.5304 19 23V8C19 7.46957 18.7893 6.96086 18.4142 6.58579C18.0391 6.21071 17.5304 6 17 6ZM10.475 6V1C10.475 0.734784 10.3696 0.48043 10.1821 0.292893C9.99457 0.105357 9.74022 0 9.475 0C9.20978 0 8.95543 0.105357 8.76789 0.292893C8.58036 0.48043 8.475 0.734784 8.475 1V6H10.475Z" fill="#10AA99"/>
</svg>
