<svg width="50" height="50" viewBox="0 0 50 50" fill="none" xmlns="http://www.w3.org/2000/svg">
<rect width="50" height="50" rx="9" fill="white"/>
<g clip-path="url(#clip0_599_408)">
<path d="M25.6423 23.4226C28.6668 22.9318 30.7207 20.0822 30.2299 17.0578C29.7392 14.0333 26.8895 11.9794 23.8651 12.4702C20.8407 12.9609 18.7868 15.8106 19.2775 18.835C19.7683 21.8594 22.6179 23.9133 25.6423 23.4226Z" fill="#10AA99"/>
<path d="M12.6296 31.1703C12.6296 34.4464 15.292 37.1087 18.5681 37.1087H30.9391C34.2152 37.1087 36.8775 34.4464 36.8775 31.1703C36.8775 27.8942 34.2152 25.2319 30.9391 25.2319H18.5681C15.292 25.2319 12.6296 27.8942 12.6296 31.1703Z" fill="#10AA99"/>
</g>
<defs>
<clipPath id="clip0_599_408">
<rect width="25.5072" height="25.5072" fill="white" transform="translate(12 12)"/>
</clipPath>
</defs>
</svg>
