<svg width="149" height="149" viewBox="0 0 149 149" fill="none" xmlns="http://www.w3.org/2000/svg">
<circle opacity="0.1" cx="74.5" cy="74.5" r="74.5" fill="#10AA99"/>
<path d="M56.98 70.1584H105.605V113.921H56.98V70.1584Z" fill="#10AA99" fill-opacity="0.45"/>
<path fill-rule="evenodd" clip-rule="evenodd" d="M71.6079 40.9985C68.4376 40.9864 65.3875 42.2133 63.1089 44.4175C60.8385 46.6137 59.5127 49.6071 59.4111 52.7635V60.4336H83.714V52.8659C83.6389 49.7057 82.3351 46.698 80.0794 44.4822C77.8178 42.2606 74.7781 41.0107 71.6079 40.9985ZM88.5765 60.4336V52.8384H88.577L88.5759 52.7856C88.4796 48.3482 86.6531 44.1236 83.4869 41.0134C80.3205 37.9031 76.0648 36.1531 71.6265 36.1361C67.1882 36.1191 62.9183 37.8367 59.7282 40.9226C56.5381 44.0085 54.68 48.2184 54.5497 52.6548L54.5487 52.7262V60.4336H47.255C45.9122 60.4336 44.8237 61.5221 44.8237 62.8648V106.627C44.8237 107.97 45.9122 109.058 47.255 109.058H95.8797C97.2224 109.058 98.3109 107.97 98.3109 106.627V62.8648C98.3109 61.5221 97.2224 60.4336 95.8797 60.4336H88.5765ZM49.6862 65.2961V104.196H93.4484V65.2961H49.6862Z" fill="#373449"/>
<path fill-rule="evenodd" clip-rule="evenodd" d="M71.5674 75.0209C70.2247 75.0209 69.1362 76.1094 69.1362 77.4522C69.1362 78.7949 70.2247 79.8834 71.5674 79.8834C72.9101 79.8834 73.9986 78.7949 73.9986 77.4522C73.9986 76.1094 72.9101 75.0209 71.5674 75.0209ZM64.2737 77.4522C64.2737 73.424 67.5392 70.1584 71.5674 70.1584C75.5956 70.1584 78.8611 73.424 78.8611 77.4522C78.8611 81.4804 75.5956 84.7459 71.5674 84.7459C67.5392 84.7459 64.2737 81.4804 64.2737 77.4522Z" fill="#373449"/>
<path fill-rule="evenodd" clip-rule="evenodd" d="M71.5672 80.3452C72.91 80.3452 73.9985 81.4337 73.9985 82.7764V96.0414C73.9985 97.3841 72.91 98.4726 71.5672 98.4726C70.2245 98.4726 69.136 97.3841 69.136 96.0414V82.7764C69.136 81.4337 70.2245 80.3452 71.5672 80.3452Z" fill="#373449"/>
<circle cx="97.8409" cy="104.305" r="17.6018" fill="#10AA99" stroke="#373449" stroke-width="4"/>
<path d="M101.014 108.381H97.2788C97.2886 107.502 97.3569 106.745 97.4839 106.11C97.6206 105.466 97.8501 104.885 98.1724 104.367C98.5044 103.85 98.9438 103.337 99.4907 102.829C99.9497 102.419 100.35 102.028 100.692 101.657C101.034 101.286 101.302 100.905 101.498 100.515C101.693 100.114 101.791 99.6699 101.791 99.1816C101.791 98.6152 101.703 98.1465 101.527 97.7754C101.361 97.3945 101.107 97.1064 100.765 96.9111C100.433 96.7158 100.013 96.6182 99.5054 96.6182C99.0854 96.6182 98.6948 96.7109 98.3335 96.8965C97.9722 97.0723 97.6743 97.3457 97.4399 97.7168C97.2153 98.0879 97.0981 98.5762 97.0884 99.1816H92.8403C92.8696 97.8438 93.1772 96.7402 93.7632 95.8711C94.3589 94.9922 95.1548 94.3428 96.1509 93.9229C97.147 93.4932 98.2651 93.2783 99.5054 93.2783C100.873 93.2783 102.044 93.5029 103.021 93.9521C103.998 94.3916 104.745 95.041 105.262 95.9004C105.78 96.75 106.039 97.7852 106.039 99.0059C106.039 99.8555 105.873 100.612 105.541 101.276C105.208 101.931 104.774 102.541 104.237 103.107C103.7 103.674 103.109 104.26 102.464 104.865C101.908 105.363 101.527 105.886 101.322 106.433C101.126 106.979 101.024 107.629 101.014 108.381ZM96.8394 112.907C96.8394 112.282 97.0542 111.765 97.4839 111.354C97.9136 110.935 98.4897 110.725 99.2124 110.725C99.9253 110.725 100.497 110.935 100.926 111.354C101.366 111.765 101.585 112.282 101.585 112.907C101.585 113.513 101.366 114.025 100.926 114.445C100.497 114.865 99.9253 115.075 99.2124 115.075C98.4897 115.075 97.9136 114.865 97.4839 114.445C97.0542 114.025 96.8394 113.513 96.8394 112.907Z" fill="#373449"/>
</svg>
