<svg width="31" height="30" viewBox="0 0 31 30" fill="none" xmlns="http://www.w3.org/2000/svg">
<path d="M15.8662 18.5313C17.8165 18.5313 19.3976 16.9502 19.3976 14.9998C19.3976 13.0495 17.8165 11.4684 15.8662 11.4684C13.9158 11.4684 12.3347 13.0495 12.3347 14.9998C12.3347 16.9502 13.9158 18.5313 15.8662 18.5313Z" fill="white" fill-opacity="0.3"/>
<path d="M5.86007 18.5313C7.81044 18.5313 9.39153 16.9502 9.39153 14.9998C9.39153 13.0495 7.81044 11.4684 5.86007 11.4684C3.9097 11.4684 2.32861 13.0495 2.32861 14.9998C2.32861 16.9502 3.9097 18.5313 5.86007 18.5313Z" fill="white" fill-opacity="0.3"/>
<path d="M25.8715 18.5313C27.8219 18.5313 29.403 16.9502 29.403 14.9998C29.403 13.0495 27.8219 11.4684 25.8715 11.4684C23.9212 11.4684 22.3401 13.0495 22.3401 14.9998C22.3401 16.9502 23.9212 18.5313 25.8715 18.5313Z" fill="white" fill-opacity="0.3"/>
<path d="M15.8662 8.52563C17.8165 8.52563 19.3976 6.94454 19.3976 4.99417C19.3976 3.0438 17.8165 1.46271 15.8662 1.46271C13.9158 1.46271 12.3347 3.0438 12.3347 4.99417C12.3347 6.94454 13.9158 8.52563 15.8662 8.52563Z" fill="white" fill-opacity="0.3"/>
<path d="M15.8662 28.5373C17.8165 28.5373 19.3976 26.9562 19.3976 25.0058C19.3976 23.0555 17.8165 21.4744 15.8662 21.4744C13.9158 21.4744 12.3347 23.0555 12.3347 25.0058C12.3347 26.9562 13.9158 28.5373 15.8662 28.5373Z" fill="white" fill-opacity="0.3"/>
<path d="M8.35737 7.49131C9.73646 6.11217 9.73643 3.87617 8.35728 2.49707C6.97814 1.11798 4.74214 1.11802 3.36304 2.49716C1.98395 3.87631 1.98398 6.1123 3.36313 7.4914C4.74227 8.8705 6.97827 8.87046 8.35737 7.49131Z" fill="white" fill-opacity="0.3"/>
<path d="M28.3691 27.503C29.7482 26.1238 29.7481 23.8878 28.369 22.5087C26.9899 21.1296 24.7539 21.1297 23.3748 22.5088C21.9957 23.888 21.9957 26.124 23.3748 27.5031C24.754 28.8822 26.99 28.8821 28.3691 27.503Z" fill="white" fill-opacity="0.3"/>
<path d="M28.3691 7.49131C29.7482 6.11217 29.7481 3.87617 28.369 2.49707C26.9899 1.11798 24.7539 1.11802 23.3748 2.49716C21.9957 3.87631 21.9957 6.1123 23.3748 7.4914C24.754 8.8705 26.99 8.87046 28.3691 7.49131Z" fill="white" fill-opacity="0.3"/>
<path d="M8.35737 27.503C9.73646 26.1238 9.73643 23.8878 8.35728 22.5087C6.97814 21.1296 4.74214 21.1297 3.36304 22.5088C1.98395 23.888 1.98398 26.124 3.36313 27.5031C4.74227 28.8822 6.97827 28.8821 8.35737 27.503Z" fill="white" fill-opacity="0.3"/>
</svg>
