<svg width="30" height="30" viewBox="0 0 30 30" fill="none" xmlns="http://www.w3.org/2000/svg">
<g clip-path="url(#clip0_399_4560)">
<path d="M15 12.1501C18.1066 12.1501 20.625 9.63169 20.625 6.52509C20.625 3.41848 18.1066 0.900085 15 0.900085C11.8934 0.900085 9.375 3.41848 9.375 6.52509C9.375 9.63169 11.8934 12.1501 15 12.1501Z" fill="white"/>
<path d="M28.9311 25.1626C28.3477 22.506 27.0097 20.0743 25.078 18.1595C24.6092 17.689 24.1011 17.2593 23.5593 16.8751C21.0918 15.0243 18.0843 14.036 14.9999 14.0626C11.2285 14.0433 7.60237 15.516 4.91239 18.1595C2.98068 20.0743 1.64275 22.506 1.05927 25.1626C0.957851 25.6324 0.96333 26.1189 1.0753 26.5862C1.18727 27.0536 1.40287 27.4898 1.70614 27.8626C2.02023 28.2434 2.41574 28.5489 2.86355 28.7566C3.31136 28.9643 3.80006 29.0688 4.29364 29.0626H25.7061C26.2012 29.0629 26.6899 28.9518 27.1362 28.7376C27.5825 28.5234 27.9749 28.2115 28.2843 27.8251C28.5821 27.4567 28.7946 27.0268 28.9064 26.5664C29.0183 26.1061 29.0267 25.6266 28.9311 25.1626Z" fill="white"/>
</g>
<defs>
<clipPath id="clip0_399_4560">
<rect width="30" height="30" fill="white"/>
</clipPath>
</defs>
</svg>
