<svg width="166" height="144" viewBox="0 0 166 144" fill="none" xmlns="http://www.w3.org/2000/svg">
<path d="M18.9677 115.672V137H16.1259L5.3886 120.55V137H2.56145V115.672H5.3886L16.1698 132.166V115.672H18.9677ZM33.0246 133.338V121.15H35.7492V137H33.1564L33.0246 133.338ZM33.5373 129.998L34.6652 129.969C34.6652 131.023 34.5529 132 34.3283 132.898C34.1134 133.787 33.7619 134.559 33.2736 135.213C32.7853 135.867 32.1457 136.38 31.3547 136.751C30.5636 137.112 29.6017 137.293 28.4689 137.293C27.6974 137.293 26.9894 137.181 26.3449 136.956C25.7101 136.731 25.1632 136.385 24.7043 135.916C24.2453 135.447 23.8888 134.837 23.6349 134.085C23.3908 133.333 23.2687 132.43 23.2687 131.375V121.15H25.9787V131.404C25.9787 132.117 26.0568 132.708 26.213 133.177C26.3791 133.636 26.5988 134.002 26.8722 134.275C27.1554 134.539 27.4679 134.725 27.8097 134.832C28.1613 134.939 28.5226 134.993 28.8937 134.993C30.0461 134.993 30.9591 134.773 31.633 134.334C32.3068 133.885 32.7902 133.284 33.0832 132.532C33.3859 131.771 33.5373 130.926 33.5373 129.998ZM42.3354 124.3V137H39.6107V121.15H42.1889L42.3354 124.3ZM41.7787 128.475L40.5189 128.431C40.5287 127.347 40.6703 126.346 40.9438 125.428C41.2172 124.5 41.6225 123.694 42.1596 123.011C42.6967 122.327 43.3656 121.8 44.1664 121.429C44.9672 121.048 45.8949 120.857 46.9496 120.857C47.6918 120.857 48.3754 120.965 49.0004 121.18C49.6254 121.385 50.1674 121.712 50.6264 122.161C51.0854 122.61 51.4418 123.187 51.6957 123.89C51.9496 124.593 52.0766 125.442 52.0766 126.438V137H49.3666V126.57C49.3666 125.74 49.225 125.076 48.9418 124.578C48.6684 124.08 48.2777 123.719 47.7699 123.494C47.2621 123.26 46.6664 123.143 45.9828 123.143C45.182 123.143 44.5131 123.284 43.976 123.567C43.4389 123.851 43.0092 124.241 42.6869 124.739C42.3647 125.237 42.1303 125.809 41.9838 126.453C41.8471 127.088 41.7787 127.762 41.7787 128.475ZM52.0473 126.98L50.2309 127.537C50.2406 126.668 50.3822 125.833 50.6557 125.032C50.9389 124.231 51.3441 123.519 51.8715 122.894C52.4086 122.269 53.0678 121.775 53.849 121.414C54.6303 121.043 55.5238 120.857 56.5297 120.857C57.3793 120.857 58.1313 120.97 58.7855 121.194C59.4496 121.419 60.0063 121.766 60.4555 122.234C60.9145 122.693 61.2611 123.284 61.4955 124.007C61.7299 124.729 61.8471 125.589 61.8471 126.585V137H59.1225V126.556C59.1225 125.667 58.9809 124.979 58.6977 124.49C58.4242 123.992 58.0336 123.646 57.5258 123.45C57.0277 123.245 56.432 123.143 55.7387 123.143C55.143 123.143 54.6156 123.245 54.1566 123.45C53.6977 123.655 53.3119 123.938 52.9994 124.3C52.6869 124.651 52.4477 125.057 52.2816 125.516C52.1254 125.975 52.0473 126.463 52.0473 126.98ZM65.694 114.5H68.4186V133.924L68.1842 137H65.694V114.5ZM79.1266 128.943V129.251C79.1266 130.403 78.9899 131.473 78.7164 132.459C78.443 133.436 78.0426 134.285 77.5153 135.008C76.9879 135.73 76.3434 136.292 75.5817 136.692C74.82 137.093 73.9459 137.293 72.9596 137.293C71.9538 137.293 71.07 137.122 70.3082 136.78C69.5563 136.429 68.9215 135.926 68.4039 135.271C67.8864 134.617 67.4713 133.826 67.1588 132.898C66.8561 131.971 66.6461 130.926 66.5289 129.764V128.416C66.6461 127.244 66.8561 126.194 67.1588 125.267C67.4713 124.339 67.8864 123.548 68.4039 122.894C68.9215 122.229 69.5563 121.727 70.3082 121.385C71.0602 121.033 71.9342 120.857 72.9303 120.857C73.9264 120.857 74.8102 121.053 75.5817 121.443C76.3532 121.824 76.9977 122.371 77.5153 123.084C78.0426 123.797 78.443 124.651 78.7164 125.647C78.9899 126.634 79.1266 127.732 79.1266 128.943ZM76.402 129.251V128.943C76.402 128.152 76.3288 127.41 76.1823 126.717C76.0358 126.014 75.8014 125.398 75.4791 124.871C75.1569 124.334 74.7321 123.914 74.2047 123.611C73.6774 123.299 73.028 123.143 72.2565 123.143C71.5729 123.143 70.9772 123.26 70.4694 123.494C69.9713 123.729 69.5465 124.046 69.195 124.446C68.8434 124.837 68.5553 125.286 68.3307 125.794C68.1159 126.292 67.9547 126.81 67.8473 127.347V130.877C68.0036 131.561 68.2575 132.22 68.609 132.854C68.9704 133.479 69.4489 133.992 70.0446 134.393C70.65 134.793 71.3971 134.993 72.2858 134.993C73.0182 134.993 73.6432 134.847 74.1608 134.554C74.6881 134.251 75.1129 133.836 75.4352 133.309C75.7672 132.781 76.0114 132.171 76.1676 131.478C76.3239 130.784 76.402 130.042 76.402 129.251ZM88.8915 137.293C87.788 137.293 86.787 137.107 85.8886 136.736C84.9999 136.355 84.2333 135.823 83.5888 135.14C82.954 134.456 82.4657 133.646 82.1239 132.708C81.7821 131.771 81.6112 130.745 81.6112 129.632V129.017C81.6112 127.728 81.8016 126.58 82.1825 125.574C82.5634 124.559 83.0809 123.699 83.7352 122.996C84.3895 122.293 85.1317 121.761 85.9618 121.399C86.7919 121.038 87.6513 120.857 88.5399 120.857C89.6727 120.857 90.6493 121.053 91.4696 121.443C92.2997 121.834 92.9784 122.381 93.5057 123.084C94.0331 123.777 94.4237 124.598 94.6776 125.545C94.9315 126.482 95.0585 127.508 95.0585 128.621V129.837H83.2225V127.625H92.3485V127.42C92.3095 126.717 92.163 126.033 91.9091 125.369C91.6649 124.705 91.2743 124.158 90.7372 123.729C90.2001 123.299 89.4677 123.084 88.5399 123.084C87.9247 123.084 87.3583 123.216 86.8407 123.479C86.3231 123.733 85.8788 124.114 85.5077 124.622C85.1366 125.13 84.8485 125.75 84.6434 126.482C84.4384 127.215 84.3358 128.06 84.3358 129.017V129.632C84.3358 130.384 84.4384 131.092 84.6434 131.756C84.8583 132.41 85.1659 132.986 85.5663 133.484C85.9764 133.982 86.4696 134.373 87.0458 134.656C87.6317 134.939 88.2958 135.081 89.038 135.081C89.995 135.081 90.8055 134.886 91.4696 134.495C92.1337 134.104 92.7147 133.582 93.2128 132.928L94.8534 134.231C94.5116 134.749 94.077 135.242 93.5497 135.711C93.0223 136.18 92.3729 136.561 91.6014 136.854C90.8397 137.146 89.9364 137.293 88.8915 137.293ZM100.693 123.641V137H97.9825V121.15H100.619L100.693 123.641ZM105.644 121.062L105.629 123.582C105.404 123.533 105.19 123.504 104.984 123.494C104.789 123.475 104.565 123.465 104.311 123.465C103.686 123.465 103.134 123.562 102.655 123.758C102.177 123.953 101.772 124.227 101.44 124.578C101.108 124.93 100.844 125.35 100.649 125.838C100.463 126.316 100.341 126.844 100.282 127.42L99.5206 127.859C99.5206 126.902 99.6134 126.004 99.799 125.164C99.9943 124.324 100.292 123.582 100.693 122.938C101.093 122.283 101.601 121.775 102.216 121.414C102.841 121.043 103.583 120.857 104.443 120.857C104.638 120.857 104.862 120.882 105.116 120.931C105.37 120.97 105.546 121.014 105.644 121.062ZM121.292 137H116.838L116.868 134.7H121.292C122.815 134.7 124.085 134.383 125.1 133.748C126.116 133.104 126.878 132.205 127.385 131.053C127.903 129.891 128.162 128.533 128.162 126.98V125.677C128.162 124.456 128.015 123.372 127.722 122.425C127.429 121.468 127 120.662 126.433 120.008C125.867 119.344 125.173 118.841 124.353 118.499C123.543 118.157 122.61 117.986 121.555 117.986H116.751V115.672H121.555C122.952 115.672 124.226 115.906 125.379 116.375C126.531 116.834 127.522 117.503 128.352 118.382C129.192 119.251 129.837 120.306 130.286 121.546C130.735 122.776 130.96 124.163 130.96 125.706V126.98C130.96 128.523 130.735 129.915 130.286 131.155C129.837 132.386 129.187 133.436 128.338 134.305C127.498 135.174 126.482 135.843 125.291 136.312C124.109 136.771 122.776 137 121.292 137ZM118.347 115.672V137H115.52V115.672H118.347ZM144.255 133.338V121.15H146.979V137H144.387L144.255 133.338ZM144.767 129.998L145.895 129.969C145.895 131.023 145.783 132 145.558 132.898C145.344 133.787 144.992 134.559 144.504 135.213C144.015 135.867 143.376 136.38 142.585 136.751C141.794 137.112 140.832 137.293 139.699 137.293C138.928 137.293 138.22 137.181 137.575 136.956C136.94 136.731 136.393 136.385 135.934 135.916C135.475 135.447 135.119 134.837 134.865 134.085C134.621 133.333 134.499 132.43 134.499 131.375V121.15H137.209V131.404C137.209 132.117 137.287 132.708 137.443 133.177C137.609 133.636 137.829 134.002 138.102 134.275C138.386 134.539 138.698 134.725 139.04 134.832C139.391 134.939 139.753 134.993 140.124 134.993C141.276 134.993 142.189 134.773 142.863 134.334C143.537 133.885 144.02 133.284 144.313 132.532C144.616 131.771 144.767 130.926 144.767 129.998ZM150.152 129.251V128.914C150.152 127.771 150.318 126.712 150.65 125.735C150.982 124.749 151.461 123.895 152.086 123.172C152.711 122.439 153.468 121.873 154.357 121.473C155.245 121.062 156.241 120.857 157.345 120.857C158.458 120.857 159.459 121.062 160.348 121.473C161.246 121.873 162.008 122.439 162.633 123.172C163.268 123.895 163.751 124.749 164.083 125.735C164.415 126.712 164.581 127.771 164.581 128.914V129.251C164.581 130.394 164.415 131.453 164.083 132.43C163.751 133.406 163.268 134.261 162.633 134.993C162.008 135.716 161.251 136.282 160.362 136.692C159.483 137.093 158.487 137.293 157.374 137.293C156.261 137.293 155.26 137.093 154.371 136.692C153.482 136.282 152.721 135.716 152.086 134.993C151.461 134.261 150.982 133.406 150.65 132.43C150.318 131.453 150.152 130.394 150.152 129.251ZM152.862 128.914V129.251C152.862 130.042 152.955 130.789 153.141 131.492C153.326 132.186 153.605 132.801 153.976 133.338C154.357 133.875 154.83 134.3 155.397 134.612C155.963 134.915 156.622 135.066 157.374 135.066C158.116 135.066 158.766 134.915 159.322 134.612C159.889 134.3 160.357 133.875 160.729 133.338C161.1 132.801 161.378 132.186 161.564 131.492C161.759 130.789 161.857 130.042 161.857 129.251V128.914C161.857 128.133 161.759 127.396 161.564 126.702C161.378 125.999 161.095 125.379 160.714 124.842C160.343 124.295 159.874 123.865 159.308 123.553C158.751 123.24 158.097 123.084 157.345 123.084C156.603 123.084 155.948 123.24 155.382 123.553C154.825 123.865 154.357 124.295 153.976 124.842C153.605 125.379 153.326 125.999 153.141 126.702C152.955 127.396 152.862 128.133 152.862 128.914Z" fill="white"/>
<rect x="28" y="0.525879" width="15.5739" height="93.4436" fill="white"/>
<rect x="28.5532" y="8.66846" width="15.5739" height="95.001" transform="rotate(-26 28.5532 8.66846)" fill="white"/>
<rect x="68.4922" y="0.525879" width="15.5739" height="93.4436" fill="white"/>
<path d="M68.4922 0.525879H93.0409C118.845 0.525879 139.763 21.4439 139.763 47.2477C139.763 73.0514 118.845 93.9694 93.0409 93.9694H68.4922V0.525879Z" fill="white"/>
<path d="M119.303 57.6237L112.784 56.8794C112.017 56.7894 111.24 56.8742 110.511 57.1276C109.782 57.381 109.12 57.7963 108.574 58.3424L103.852 63.0651C96.5654 59.3594 90.6431 53.437 86.9374 46.1507L91.6857 41.4023C92.7894 40.2986 93.3284 38.7586 93.1487 37.1929L92.4044 30.7249C92.2589 29.4728 91.658 28.318 90.7161 27.4802C89.7743 26.6425 88.5572 26.1804 87.2967 26.1819H82.8564C79.9561 26.1819 77.5434 28.5946 77.7231 31.4949C79.0834 53.4144 96.6137 70.9191 118.507 72.2795C121.408 72.4591 123.82 70.0465 123.82 67.1461V62.7058C123.846 60.1134 121.895 57.9317 119.303 57.6237Z" fill="#10AA99"/>
</svg>
