<svg width="308" height="284" viewBox="0 0 308 284" fill="none" xmlns="http://www.w3.org/2000/svg">
<g clip-path="url(#clip0_754_194)">
<g opacity="0.3">
<g opacity="0.4">
<path d="M304.329 182.338C304.634 177.406 304.498 172.475 303.955 167.577C301.337 144.619 289.54 122.953 272.203 107.648C266.015 102.206 258.978 97.3081 254.967 90.0976C248.168 77.9893 248.712 64.0444 240.281 52.0722C231.85 40.1 219.578 30.7467 205.741 25.951C164.437 11.632 106.644 34.9302 111.846 84.6897C111.868 84.8711 111.891 85.1318 111.914 85.472C112.627 95.8116 104.502 104.485 94.2018 104.757C56.0928 105.641 23.321 135.027 16.2839 172.237C11.7965 196.181 19.1736 222.404 36.6813 239.342C49.7356 251.995 67.2433 258.933 84.785 263.695C119.936 273.252 156.958 275.259 193.197 271.62C227.125 268.184 262.922 258.423 284.883 232.302C296.578 218.357 303.275 200.5 304.329 182.338Z" fill="#53D0F7"/>
</g>
<g opacity="0.3">
<path d="M294.402 19.0128C295.796 26.2913 291.002 33.3318 283.727 34.6923C276.452 36.0868 269.415 31.2911 268.055 24.0125C266.661 16.7339 271.455 9.72748 278.73 8.33299C286.005 6.9385 293.008 11.7342 294.402 19.0128Z" fill="#53D0F7"/>
</g>
<g opacity="0.3">
<path d="M259.25 7.27853C259.726 9.82942 258.06 12.2783 255.545 12.7545C253.029 13.2306 250.581 11.564 250.106 9.04715C249.596 6.49625 251.261 4.04739 253.811 3.57122C256.327 3.09505 258.774 4.76164 259.25 7.27853Z" fill="#53D0F7"/>
</g>
<g opacity="0.3">
<path d="M93.046 33.6039C93.046 37.0731 90.2584 39.8621 86.7908 39.8621C83.3573 39.8621 80.5356 37.0731 80.5356 33.6039C80.5356 30.1347 83.3573 27.3457 86.7908 27.3457C90.2584 27.3457 93.046 30.1347 93.046 33.6039Z" fill="#53D0F7"/>
</g>
<g opacity="0.3">
<path d="M31.5819 273.49C31.5819 279.17 26.9585 283.762 21.3153 283.762C15.638 283.762 11.0486 279.17 11.0486 273.49C11.0486 267.844 15.638 263.253 21.3153 263.253C26.9585 263.253 31.5819 267.844 31.5819 273.49Z" fill="#53D0F7"/>
</g>
</g>
<g opacity="0.6">
<path d="M45.8599 21.0874C45.8599 22.788 44.4661 24.1485 42.8003 24.1485C41.1005 24.1485 39.7407 22.788 39.7407 21.0874C39.7407 19.3868 41.1005 18.0264 42.8003 18.0264C44.4661 18.0264 45.8599 19.3868 45.8599 21.0874Z" fill="#FFC727"/>
</g>
<g opacity="0.6">
<path d="M2.68566 176.42C2.68566 177.1 2.14173 177.611 1.46182 177.611C0.815902 177.611 0.271973 177.1 0.271973 176.42C0.271973 175.74 0.815902 175.196 1.46182 175.196C2.14173 175.196 2.68566 175.74 2.68566 176.42Z" fill="#FFC727"/>
</g>
<g opacity="0.6">
<path d="M303.275 50.8138C303.275 51.46 302.731 52.0042 302.051 52.0042C301.371 52.0042 300.827 51.46 300.827 50.8138C300.827 50.1335 301.371 49.5894 302.051 49.5894C302.731 49.5894 303.275 50.1335 303.275 50.8138Z" fill="#FFC727"/>
</g>
<g opacity="0.6">
<path d="M21.0094 1.25837C21.0094 1.90459 20.4655 2.44879 19.7855 2.44879C19.1396 2.44879 18.5957 1.90459 18.5957 1.25837C18.5957 0.578127 19.1396 0.0339355 19.7855 0.0339355C20.4655 0.0339355 21.0094 0.578127 21.0094 1.25837Z" fill="#10AA99"/>
</g>
<g opacity="0.6">
<path d="M305.688 131.796C305.688 132.477 305.144 133.021 304.499 133.021C303.819 133.021 303.275 132.477 303.275 131.796C303.275 131.116 303.819 130.572 304.499 130.572C305.144 130.572 305.688 131.116 305.688 131.796Z" fill="#10AA99"/>
</g>
<g opacity="0.6">
<path d="M126.838 1.25837C126.838 1.90459 126.294 2.44879 125.614 2.44879C124.968 2.44879 124.424 1.90459 124.424 1.25837C124.424 0.578127 124.968 0.0339355 125.614 0.0339355C126.294 0.0339355 126.838 0.578127 126.838 1.25837Z" fill="#10AA99"/>
</g>
<g opacity="0.6">
<path d="M210.875 5.6801C210.467 7.68681 208.495 8.94525 206.523 8.5031C204.551 8.09495 203.26 6.15627 203.702 4.14956C204.11 2.17687 206.081 0.918425 208.053 1.32657C210.059 1.73471 211.317 3.70741 210.875 5.6801Z" fill="#FFC727"/>
</g>
<g opacity="0.3">
<g opacity="0.5">
<path d="M33.7236 41.7326C30.494 35.7125 23.015 33.4677 17.0318 36.6988C11.0486 39.896 4.62339 49.6234 7.81897 55.6095C11.0486 61.5956 20.6013 56.9019 27.4344 56.97C36.9192 57.072 36.9192 47.7187 33.7236 41.7326Z" fill="#53D0F7"/>
</g>
<g opacity="0.5">
<path d="M302.969 224.037C307.218 217.268 308.272 208.867 307.388 200.909C306.504 193.018 304.09 184.753 300.725 177.542C297.495 170.74 292.872 164.686 291.546 157.101C289.812 147.068 294.368 137.442 295.422 127.613C297.563 108.022 284.339 90.8119 267.953 81.4926C254.627 73.942 239.023 71.085 223.691 71.289C209.923 71.4591 196.155 73.908 182.794 77.2071C169.944 80.3702 157.366 84.5537 143.869 83.2272C132.651 82.1389 122.554 77.4792 112.083 74.01C87.1647 65.7111 56.9426 64.5207 34.1316 77.1731C19.4795 85.268 9.24679 98.4306 4.69138 112.614C1.35981 122.953 0.373943 134.891 2.82162 145.401C5.57527 157.169 10.6406 167.577 9.28079 179.991C8.19293 190.195 4.45341 200.126 4.79337 210.466C5.06533 219.343 8.3969 228.22 13.5642 235.431C13.9042 235.873 14.2781 236.349 14.6521 236.757H288.419C294.13 233.662 299.501 229.547 302.969 224.037Z" fill="#53D0F7"/>
</g>
<g opacity="0.8">
<path d="M267.817 217.268C268.769 209.718 266.491 202.677 266.797 195.365C267.375 181.25 280.328 171.488 284.849 158.802C290.56 142.748 290.288 124.722 283.353 109.076C280.022 101.526 275.126 94.5191 268.429 89.6894C258.162 82.2068 244.666 80.5742 231.986 81.4925C213.084 82.921 193.197 90.7778 174.193 88.6351C163.723 87.4446 160.527 76.5608 155.122 69.3503C149.003 61.2214 140.674 54.8612 131.461 50.6097C114.497 42.7869 94.1337 42.0386 76.796 49.1471C58.2684 56.6978 42.1545 75.2003 43.2083 96.1517C43.6843 105.811 47.7297 115.436 45.86 124.96C43.5143 136.898 34.1655 147.782 27.3664 157.509C19.8874 168.257 15.3659 181.046 14.4821 194.14C13.4622 208.935 17.1337 224.037 24.8507 236.757H261.29C264.724 230.771 266.933 224.105 267.817 217.268Z" fill="#53D0F7"/>
</g>
</g>
<path d="M286.073 239.648H17.1679C16.59 239.648 16.114 239.172 16.114 238.594C16.114 237.982 16.59 237.506 17.1679 237.506H286.073C286.651 237.506 287.127 237.982 287.127 238.594C287.127 239.172 286.651 239.648 286.073 239.648Z" fill="#233863"/>
<path d="M243.986 175.128H191.701C189.593 175.128 187.894 173.427 187.894 171.318V139.585C187.894 137.034 189.933 134.959 192.483 134.959H229.98C230.354 134.959 230.66 135.266 230.66 135.64C230.66 136.014 230.354 136.32 229.98 136.32H192.483C190.681 136.32 189.253 137.782 189.253 139.585V171.318C189.253 172.679 190.341 173.767 191.701 173.767H243.986C245.346 173.767 246.434 172.679 246.434 171.318V140.401C246.434 138.157 244.632 136.32 242.388 136.32H235.113C234.739 136.32 234.434 136.014 234.434 135.64C234.434 135.266 234.739 134.959 235.113 134.959H242.388C245.38 134.959 247.794 137.408 247.794 140.401V171.318C247.794 173.427 246.094 175.128 243.986 175.128Z" fill="#FFC727"/>
<path d="M190.375 174.209C190.171 174.209 190.001 174.107 189.865 173.971C189.593 173.699 189.627 173.257 189.899 173.019L211.282 154.006C211.554 153.734 211.996 153.768 212.234 154.04C212.472 154.312 212.472 154.754 212.166 154.993L190.817 174.039C190.681 174.141 190.511 174.209 190.375 174.209Z" fill="#FFC727"/>
<path d="M245.108 174.719C244.938 174.719 244.768 174.651 244.632 174.549L223.317 155.639C223.045 155.367 223.011 154.958 223.249 154.686C223.521 154.38 223.929 154.346 224.201 154.618L245.55 173.529C245.822 173.767 245.856 174.209 245.618 174.481C245.482 174.651 245.278 174.719 245.108 174.719Z" fill="#FFC727"/>
<path d="M217.844 159.244C217.13 159.244 216.416 159.006 215.838 158.564L188.777 138.667C188.471 138.463 188.403 138.021 188.641 137.714C188.845 137.442 189.287 137.374 189.593 137.578L216.62 157.475C217.368 158.02 218.32 158.02 219.033 157.475L245.516 138.157C245.822 137.953 246.264 138.021 246.468 138.327C246.706 138.633 246.638 139.041 246.332 139.279L219.849 158.564C219.237 159.006 218.557 159.244 217.844 159.244Z" fill="#FFC727"/>
<path d="M244.462 130.742C245.006 131.15 245.788 131.15 246.332 130.742L268.837 114.314C267.953 113.26 266.627 112.546 265.166 112.546H224.813C223.555 112.546 222.433 113.158 221.719 114.042C221.753 114.076 221.787 114.076 221.821 114.076L244.462 130.742Z" fill="#10AA99"/>
<path d="M247.148 131.83C246.604 132.204 245.992 132.409 245.38 132.409C244.768 132.409 244.156 132.204 243.646 131.83L240.213 129.313L222.841 144.755C222.841 144.755 222.83 144.766 222.807 144.789C223.181 144.925 223.589 145.027 224.031 145.027H266.763C267.013 145.027 267.251 144.993 267.477 144.925L250.174 129.62L247.148 131.83Z" fill="#10AA99"/>
<path d="M239.091 128.463L221.073 115.233C220.96 115.641 220.903 116.06 220.903 116.491V141.898C220.903 142.714 221.209 143.497 221.753 144.041C221.787 143.939 221.855 143.837 221.957 143.735L239.091 128.463Z" fill="#10AA99"/>
<path d="M268.667 144.177C268.701 144.211 268.701 144.245 268.735 144.313C269.449 143.735 269.891 142.85 269.891 141.898V117.307C269.891 116.661 269.755 116.049 269.551 115.505L251.295 128.803L268.667 144.177Z" fill="#10AA99"/>
<g opacity="0.7">
<path fill-rule="evenodd" clip-rule="evenodd" d="M269.959 208.153H234.468C232.36 208.153 230.66 206.419 230.66 204.344V183.733C230.66 181.182 232.734 179.141 235.25 179.141H268.361C271.353 179.141 273.767 181.556 273.767 184.549V204.344C273.767 206.419 272.067 208.153 269.959 208.153ZM235.25 180.502C233.482 180.502 232.02 181.93 232.02 183.733V204.344C232.02 205.67 233.108 206.793 234.468 206.793H269.959C271.319 206.793 272.407 205.67 272.407 204.344V184.549C272.407 182.304 270.605 180.502 268.361 180.502H235.25Z" fill="white"/>
<path d="M233.074 207.303L232.19 206.283L247.42 192.746L248.304 193.766L233.074 207.303Z" fill="white"/>
<path d="M271.217 207.677L255.987 194.208L256.905 193.188L272.101 206.657L271.217 207.677Z" fill="white"/>
<path d="M252.213 196.827C251.669 196.827 251.125 196.657 250.684 196.317L231.374 182.134L232.19 181.012L251.465 195.195C251.907 195.535 252.519 195.535 252.961 195.195L272.951 180.638L273.767 181.726L253.777 196.317C253.301 196.657 252.757 196.827 252.213 196.827Z" fill="white"/>
</g>
<path d="M278.186 112.716C278.186 117.409 274.344 121.253 269.619 121.253C264.928 121.253 261.086 117.409 261.086 112.716C261.086 107.988 264.928 104.145 269.619 104.145C274.344 104.145 278.186 107.988 278.186 112.716Z" fill="#FFC727"/>
<path d="M267.749 116.015H266.797V110.335L265.845 110.947V109.961L266.797 109.314H267.749V116.015Z" fill="white"/>
<path fill-rule="evenodd" clip-rule="evenodd" d="M269.755 115.573C269.415 115.233 269.245 114.768 269.245 114.178V111.151C269.245 110.539 269.415 110.074 269.755 109.757C270.072 109.417 270.537 109.247 271.149 109.247C271.783 109.247 272.259 109.417 272.577 109.757C272.894 110.074 273.053 110.539 273.053 111.151V114.178C273.053 114.768 272.894 115.233 272.577 115.573C272.259 115.913 271.783 116.083 271.149 116.083C270.537 116.083 270.072 115.913 269.755 115.573ZM271.897 114.927C272.055 114.745 272.135 114.496 272.135 114.178V111.151C272.135 110.811 272.055 110.562 271.897 110.403C271.738 110.222 271.489 110.131 271.149 110.131C270.832 110.131 270.594 110.222 270.435 110.403C270.276 110.562 270.197 110.811 270.197 111.151V114.178C270.197 114.496 270.276 114.745 270.435 114.927C270.594 115.108 270.832 115.199 271.149 115.199C271.489 115.199 271.738 115.108 271.897 114.927Z" fill="white"/>
<path fill-rule="evenodd" clip-rule="evenodd" d="M80.0937 110.335C79.6178 110.335 79.1418 110.131 78.8358 109.791L73.0566 103.805C72.6826 103.396 72.1387 103.192 71.5948 103.192L15.0261 103.124C11.8985 103.124 9.34888 100.539 9.34888 97.4104V75.9488C9.34888 72.8197 11.8985 70.2688 15.0601 70.2688H75.3683C78.9378 70.2688 81.8275 73.1598 81.8275 76.7651V108.566C81.8275 109.281 81.4195 109.927 80.7396 110.199C80.513 110.29 80.2977 110.335 80.0937 110.335ZM15.0601 71.6293C12.6464 71.6293 10.7087 73.568 10.7087 75.9488V97.4104C10.7087 99.7912 12.6464 101.764 15.0601 101.764L71.5948 101.832C72.5127 101.832 73.3966 102.206 74.0425 102.852L79.7877 108.838C79.9577 109.008 80.1617 108.974 80.2297 108.94C80.2977 108.906 80.4676 108.804 80.4676 108.566V76.7651C80.4676 73.9081 78.1899 71.6293 75.3683 71.6293H15.0601Z" fill="#10AA99"/>
<path d="M65.9513 82.9552H51.4692C51.0953 82.9552 50.7893 82.6491 50.7893 82.275C50.7893 81.9008 51.0953 81.5947 51.4692 81.5947H65.9513C66.3593 81.5947 66.6313 81.9008 66.6313 82.275C66.6313 82.6491 66.3593 82.9552 65.9513 82.9552Z" fill="#FFC727"/>
<path d="M42.6644 82.9552H20.4653C20.0914 82.9552 19.7854 82.6491 19.7854 82.275C19.7854 81.9008 20.0914 81.5947 20.4653 81.5947H42.6644C43.0384 81.5947 43.3443 81.9008 43.3443 82.275C43.3443 82.6491 43.0384 82.9552 42.6644 82.9552Z" fill="#FFC727"/>
<path d="M65.9514 88.1251H29.4741C29.1001 88.1251 28.7942 87.819 28.7942 87.4449C28.7942 87.0708 29.1001 86.7646 29.4741 86.7646H65.9514C66.3593 86.7646 66.6313 87.0708 66.6313 87.4449C66.6313 87.819 66.3593 88.1251 65.9514 88.1251Z" fill="#FFC727"/>
<path d="M65.9514 93.2948H41.7805C41.4065 93.2948 41.1006 92.9887 41.1006 92.6146C41.1006 92.2404 41.4065 91.9343 41.7805 91.9343H65.9514C66.3593 91.9343 66.6313 92.2404 66.6313 92.6146C66.6313 92.9887 66.3593 93.2948 65.9514 93.2948Z" fill="#FFC727"/>
<path d="M72.3086 73.738H52.6591C52.0472 73.738 51.4353 73.976 50.9933 74.4522L46.098 79.52C45.554 80.0982 44.5342 79.6901 44.5342 78.8738V71.1871V51.8683C44.5342 49.1473 46.7439 46.9365 49.4635 46.9365H73.0905C75.3002 46.9365 77.102 48.7392 77.102 50.9499V68.9423C77.102 71.5952 74.9602 73.738 72.3086 73.738Z" fill="#FFC727"/>
<path d="M54.9029 60.9154C54.9029 61.8677 54.155 62.616 53.2371 62.616C52.2853 62.616 51.5374 61.8677 51.5374 60.9154C51.5374 59.997 52.2853 59.2488 53.2371 59.2488C54.155 59.2488 54.9029 59.997 54.9029 60.9154Z" fill="white"/>
<path d="M62.7899 60.9154C62.7899 61.8677 62.042 62.616 61.1241 62.616C60.1722 62.616 59.4243 61.8677 59.4243 60.9154C59.4243 59.997 60.1722 59.2488 61.1241 59.2488C62.042 59.2488 62.7899 59.997 62.7899 60.9154Z" fill="white"/>
<path d="M70.8468 60.9154C70.8468 61.8677 70.0989 62.616 69.181 62.616C68.2631 62.616 67.4812 61.8677 67.4812 60.9154C67.4812 59.997 68.2631 59.2488 69.181 59.2488C70.0989 59.2488 70.8468 59.997 70.8468 60.9154Z" fill="white"/>
<path d="M31.5479 131.796C31.5479 143.769 41.2366 153.462 53.203 153.462C65.1695 153.462 74.8582 143.769 74.8582 131.796C74.8582 119.824 65.1695 110.131 53.203 110.131C41.2366 110.131 31.5479 119.824 31.5479 131.796Z" fill="#10AA99"/>
<path fill-rule="evenodd" clip-rule="evenodd" d="M53.203 143.701C50.8233 143.701 48.8176 141.898 48.5116 139.517L48.4436 138.769H57.9624L57.8944 139.517C57.6224 141.898 55.5827 143.701 53.203 143.701ZM50.0414 140.129C50.5173 141.422 51.7752 142.34 53.203 142.34C54.6308 142.34 55.8886 141.422 56.3646 140.129H50.0414Z" fill="white"/>
<path fill-rule="evenodd" clip-rule="evenodd" d="M61.5659 135.64H44.8401V127.919C44.8401 123.498 48.4436 119.892 52.863 119.892H53.543C57.9624 119.892 61.5659 123.498 61.5659 127.919V135.64ZM46.1999 134.279H60.2061V127.953C60.2061 124.28 57.2145 121.287 53.543 121.287H52.863C49.1915 121.287 46.1999 124.28 46.1999 127.953V134.279Z" fill="white"/>
<path fill-rule="evenodd" clip-rule="evenodd" d="M60.8861 140.129H45.5201C43.9563 140.129 42.6985 138.837 42.6985 137.306V137.102C42.6985 135.538 43.9563 134.279 45.5201 134.279H60.8861C62.4499 134.279 63.7418 135.538 63.7418 137.102V137.306C63.7418 138.837 62.4499 140.129 60.8861 140.129ZM45.5201 135.64C44.7042 135.64 44.0583 136.286 44.0583 137.102V137.306C44.0583 138.089 44.7042 138.769 45.5201 138.769H60.8861C61.702 138.769 62.3819 138.089 62.3819 137.306V137.102C62.3819 136.286 61.702 135.64 60.8861 135.64H45.5201Z" fill="white"/>
<path d="M71.7986 23.7064C71.7986 31.223 77.8838 37.3111 85.3968 37.3111C92.9098 37.3111 99.029 31.223 99.029 23.7064C99.029 16.1897 92.9098 10.1016 85.3968 10.1016C77.8838 10.1016 71.7986 16.1897 71.7986 23.7064Z" fill="#10AA99"/>
<path d="M84.6489 18.3325H86.1787V26.3253H84.6489V18.3325ZM84.6489 27.5838H86.1787V29.1143H84.6489V27.5838Z" fill="white"/>
<path d="M268.973 54.0791H197.65C193.843 54.0791 190.783 57.1402 190.783 60.9495V87.853V98.5668C190.783 99.6892 192.177 100.267 192.959 99.4511L199.758 92.3766C200.37 91.7304 201.22 91.3902 202.07 91.3902L268.973 91.3222C272.237 91.3222 274.888 88.6693 274.888 85.3701V59.9972C274.888 56.732 272.237 54.0791 268.973 54.0791Z" fill="#FFC727"/>
<path d="M225.867 68.16H208.733C208.359 68.16 208.053 67.8539 208.053 67.4798C208.053 67.1057 208.359 66.7996 208.733 66.7996H225.867C226.241 66.7996 226.547 67.1057 226.547 67.4798C226.547 67.8539 226.241 68.16 225.867 68.16Z" fill="white"/>
<path d="M262.548 68.16H236.303C235.929 68.16 235.623 67.8539 235.623 67.4798C235.623 67.1057 235.929 66.7996 236.303 66.7996H262.548C262.922 66.7996 263.228 67.1057 263.228 67.4798C263.228 67.8539 262.922 68.16 262.548 68.16Z" fill="white"/>
<path d="M251.907 74.2482H208.733C208.359 74.2482 208.053 73.9421 208.053 73.5679C208.053 73.1938 208.359 72.8877 208.733 72.8877H251.907C252.281 72.8877 252.587 73.1938 252.587 73.5679C252.587 73.9421 252.281 74.2482 251.907 74.2482Z" fill="white"/>
<path d="M237.323 80.3702H208.733C208.359 80.3702 208.053 80.0641 208.053 79.69C208.053 79.3159 208.359 79.0098 208.733 79.0098H237.323C237.697 79.0098 238.003 79.3159 238.003 79.69C238.003 80.0641 237.697 80.3702 237.323 80.3702Z" fill="white"/>
<path d="M178.273 55.5074H198.16C198.772 55.5074 199.384 55.7455 199.826 56.2217L204.789 61.3575C205.367 61.9357 206.353 61.5276 206.353 60.7113V52.9225V33.3997C206.353 30.6447 204.144 28.3999 201.39 28.3999H177.491C175.247 28.3999 173.446 30.2025 173.446 32.4473V50.6437C173.446 53.3307 175.587 55.5074 178.273 55.5074Z" fill="#10AA99"/>
<path d="M195.883 42.549C195.883 43.5013 196.63 44.2496 197.582 44.2496C198.534 44.2496 199.282 43.5013 199.282 42.549C199.282 41.5967 198.534 40.8484 197.582 40.8484C196.63 40.8484 195.883 41.5967 195.883 42.549Z" fill="white"/>
<path d="M187.894 42.549C187.894 43.5013 188.675 44.2496 189.593 44.2496C190.545 44.2496 191.293 43.5013 191.293 42.549C191.293 41.5967 190.545 40.8484 189.593 40.8484C188.675 40.8484 187.894 41.5967 187.894 42.549Z" fill="white"/>
<path d="M179.735 42.549C179.735 43.5013 180.517 44.2496 181.434 44.2496C182.386 44.2496 183.134 43.5013 183.134 42.549C183.134 41.5967 182.386 40.8484 181.434 40.8484C180.517 40.8484 179.735 41.5967 179.735 42.549Z" fill="white"/>
<path d="M282.571 58.9427C282.571 64.7928 277.846 69.5204 271.999 69.5204C266.185 69.5204 261.426 64.7928 261.426 58.9427C261.426 53.0927 266.185 48.365 271.999 48.365C277.846 48.365 282.571 53.0927 282.571 58.9427Z" fill="#10AA99"/>
<path d="M273.222 63.8744H271.761V55.0993L270.299 56.0176V54.4871L271.761 53.5007H273.222V63.8744Z" fill="white"/>
<g opacity="0.6">
<path d="M180.483 212.303H162.703C162.329 212.303 162.023 211.997 162.023 211.623C162.023 211.248 162.329 210.942 162.703 210.942H180.483C180.857 210.942 181.162 211.248 181.162 211.623C181.162 211.997 180.857 212.303 180.483 212.303Z" fill="white"/>
<path d="M218.558 212.303H191.327C190.953 212.303 190.647 211.997 190.647 211.623C190.647 211.248 190.953 210.942 191.327 210.942H218.558C218.932 210.942 219.238 211.248 219.238 211.623C219.238 211.997 218.932 212.303 218.558 212.303Z" fill="white"/>
<path d="M207.509 218.663H162.703C162.329 218.663 162.023 218.357 162.023 217.983C162.023 217.575 162.329 217.303 162.703 217.303H207.509C207.883 217.303 208.189 217.575 208.189 217.983C208.189 218.357 207.883 218.663 207.509 218.663Z" fill="white"/>
<path d="M192.381 224.989H162.703C162.329 224.989 162.023 224.683 162.023 224.309C162.023 223.935 162.329 223.629 162.703 223.629H192.381C192.755 223.629 193.061 223.935 193.061 224.309C193.061 224.683 192.755 224.989 192.381 224.989Z" fill="white"/>
<path d="M65.7814 202.269H19.7854C19.4114 202.269 19.1055 201.963 19.1055 201.589C19.1055 201.215 19.4114 200.909 19.7854 200.909H65.7814C66.1554 200.909 66.4613 201.215 66.4613 201.589C66.4613 201.963 66.1554 202.269 65.7814 202.269Z" fill="white"/>
<path d="M65.7814 188.052H19.7854C19.4114 188.052 19.1055 187.746 19.1055 187.372C19.1055 186.998 19.4114 186.692 19.7854 186.692H65.7814C66.1554 186.692 66.4613 186.998 66.4613 187.372C66.4613 187.746 66.1554 188.052 65.7814 188.052Z" fill="white"/>
<path d="M65.7813 195.161H40.9985C40.6246 195.161 40.3186 194.855 40.3186 194.481C40.3186 194.106 40.6246 193.8 40.9985 193.8H65.7813C66.1552 193.8 66.4612 194.106 66.4612 194.481C66.4612 194.855 66.1552 195.161 65.7813 195.161Z" fill="white"/>
<path d="M65.7813 180.502H40.9985C40.6246 180.502 40.3186 180.195 40.3186 179.821C40.3186 179.447 40.6246 179.141 40.9985 179.141H65.7813C66.1552 179.141 66.4612 179.447 66.4612 179.821C66.4612 180.195 66.1552 180.502 65.7813 180.502Z" fill="white"/>
<path d="M65.7815 173.733H49.0556C48.6817 173.733 48.3757 173.427 48.3757 173.053C48.3757 172.679 48.6817 172.373 49.0556 172.373H65.7815C66.1554 172.373 66.4614 172.679 66.4614 173.053C66.4614 173.427 66.1554 173.733 65.7815 173.733Z" fill="white"/>
</g>
<path d="M167.36 70.8469C167.36 70.8469 167.292 70.8469 167.326 70.8469C175.655 59.725 165.219 44.9638 156.142 44.0455C153.048 40.2021 148.901 37.073 143.835 35.2024C141.184 34.216 138.43 33.6718 135.71 33.5358C135.642 26.6314 130.067 21.0874 123.166 21.0874C116.265 21.0874 110.656 26.6994 110.656 33.6038C110.656 36.8349 111.88 39.76 113.885 41.9708C111.846 44.0115 110.112 46.3923 108.786 49.0793C108.469 49.7141 108.174 50.349 107.902 50.9839C97.7373 50.6438 89.0345 58.3305 88.2186 68.6021C87.6407 75.8467 91.2102 82.445 96.8875 86.1523C93.4199 87.9549 91.2442 90.4718 91.0062 93.3969C90.7682 96.764 93.1819 100.029 97.3294 102.58C96.4795 104.315 96.0036 106.219 96.0036 108.226C96.0036 116.015 103.143 122.341 111.981 122.341C117.931 122.341 123.132 119.45 125.886 115.165C127.789 116.389 129.897 117.545 132.175 118.532C143.937 123.668 155.632 122.851 158.283 116.729C159.031 115.062 158.997 113.192 158.351 111.219C159.054 111.106 159.745 110.947 160.425 110.743C184.188 103.124 187.418 79.9281 167.36 70.8469Z" fill="#233863"/>
<path d="M171.848 172.271L170.25 167.781L182.182 160.979L182.556 160.775V159.618C182.556 137.681 168.482 119.926 151.11 119.926H132.685L132.923 120.368L100.389 120.641C92.298 120.709 85.4309 126.525 82.7452 134.653L59.8662 185.807L63.1638 186.216L81.9293 188.528L82.3373 240.499L162.873 240.533L165.524 198.086L168.55 193.154L170.012 190.773C173.343 185.365 174.023 178.393 171.848 172.271Z" fill="#FFC727"/>
<path d="M104.502 191.521L85.431 189.277C85.261 189.277 85.125 189.107 85.125 188.903C85.159 188.732 85.329 188.596 85.499 188.596L103.993 190.773L109.228 168.121C109.262 167.951 109.466 167.815 109.636 167.883C109.806 167.917 109.942 168.087 109.874 168.291L104.502 191.521Z" fill="#374081"/>
<path d="M124.424 142.816C113.307 142.816 104.23 133.769 104.23 122.613V120.368C104.23 120.062 104.468 119.858 104.74 119.858C105.012 119.858 105.216 120.062 105.216 120.368V122.613C105.216 133.225 113.851 141.83 124.424 141.83C134.996 141.83 143.597 133.225 143.597 122.613V120.368C143.597 120.062 143.801 119.858 144.073 119.858C144.345 119.858 144.583 120.062 144.583 120.368V122.613C144.583 133.769 135.54 142.816 124.424 142.816Z" fill="#233863"/>
<path d="M110.962 131.83C110.792 131.83 110.622 131.762 110.554 131.592C108.65 128.837 107.664 125.606 107.664 122.239V120.368C107.664 120.062 107.902 119.858 108.174 119.858C108.446 119.858 108.65 120.062 108.65 120.368V122.239C108.65 125.402 109.602 128.463 111.37 131.048C111.506 131.286 111.438 131.592 111.234 131.728C111.143 131.796 111.052 131.83 110.962 131.83Z" fill="#233863"/>
<path d="M124.424 138.973C120.582 138.973 116.979 137.714 113.987 135.334C113.783 135.164 113.749 134.857 113.919 134.653C114.089 134.415 114.395 134.381 114.599 134.551C117.421 136.796 120.82 137.987 124.424 137.987C128.027 137.987 131.393 136.796 134.214 134.551C134.418 134.381 134.758 134.449 134.894 134.653C135.064 134.857 135.03 135.164 134.826 135.334C131.835 137.714 128.231 138.973 124.424 138.973Z" fill="#233863"/>
<path d="M138.532 130.742C138.464 130.742 138.385 130.719 138.294 130.674C138.056 130.538 137.988 130.232 138.124 129.994C139.45 127.647 140.164 124.96 140.164 122.239V120.368C140.164 120.062 140.402 119.858 140.674 119.858C140.946 119.858 141.15 120.062 141.15 120.368V122.239C141.15 125.13 140.402 127.987 138.974 130.504C138.872 130.64 138.736 130.742 138.532 130.742Z" fill="#233863"/>
<path d="M172.358 254.274L159.677 235.159C156.754 231.452 155.088 226.928 151.722 226.01L149.445 225.431V225.397L92.502 211.248L97.1934 190.365L63.1638 186.216L52.6252 220.908C51.9453 223.901 51.9793 226.894 52.6252 229.683C54.257 238.458 61.838 245.362 71.3568 245.532L131.427 245.396C137.682 251.927 157.162 265.327 157.162 265.327C158.08 266.11 159.507 266.008 160.289 265.089C160.833 264.477 160.969 263.695 160.731 262.981C160.844 262.958 160.901 262.947 160.901 262.947C160.969 262.947 161.003 262.981 161.071 262.981L161.887 263.797C162.873 264.749 164.437 264.715 165.355 263.729L165.423 263.695C165.831 263.253 166.068 262.709 166.102 262.13V262.164C167.054 263.117 168.618 263.117 169.57 262.198L169.638 262.13C170.59 261.178 170.624 259.613 169.672 258.661L169.434 258.423C169.411 258.332 169.377 258.242 169.332 258.151C170.284 258.695 171.474 258.559 172.256 257.777L172.324 257.743C173.276 256.79 173.31 255.226 172.358 254.274Z" fill="#FFBA94"/>
<path d="M169.536 258.525C169.434 258.525 169.366 258.491 169.298 258.423L161.751 250.702C161.615 250.566 161.615 250.328 161.751 250.226C161.887 250.09 162.091 250.09 162.227 250.226L169.774 257.947C169.91 258.083 169.91 258.287 169.774 258.423C169.706 258.491 169.627 258.525 169.536 258.525Z" fill="#FB8E77"/>
<path d="M165.524 261.552C165.422 261.552 165.354 261.518 165.286 261.45L157.739 253.729C157.603 253.593 157.603 253.389 157.739 253.253C157.875 253.117 158.079 253.117 158.215 253.253L165.762 260.974C165.898 261.11 165.898 261.314 165.762 261.45C165.694 261.518 165.615 261.552 165.524 261.552Z" fill="#FB8E77"/>
<path d="M160.765 263.151C160.674 263.151 160.595 263.117 160.527 263.049L152.742 255.532C152.606 255.43 152.606 255.192 152.708 255.056C152.844 254.92 153.082 254.92 153.218 255.056L161.003 262.539C161.139 262.675 161.139 262.913 161.003 263.049C160.935 263.117 160.833 263.151 160.765 263.151Z" fill="#FB8E77"/>
<path d="M98.2133 212.983C98.1679 212.983 98.1226 212.983 98.0773 212.983L80.5696 207.337C80.3656 207.303 80.2976 207.099 80.3316 206.929C80.3996 206.725 80.6036 206.623 80.7735 206.691L98.3153 212.337C98.4852 212.405 98.5872 212.575 98.5192 212.745C98.4852 212.915 98.3492 212.983 98.2133 212.983Z" fill="#FB8E77"/>
<path d="M140.742 61.3916C137.41 61.8678 134.215 64.9629 131.699 68.3641C131.291 68.9082 130.86 69.3958 130.407 69.8266C127.008 73.0237 122.044 73.3638 118.203 71.2551L117.251 71.085C113.103 70.3368 109.092 73.1257 108.344 77.3092V77.4453C107.596 81.6287 110.384 85.6081 114.531 86.3564L116.435 86.6965L115.925 89.4855C115.653 91.1521 115.551 92.8187 115.687 94.4513L111.302 119.076C110.01 126.218 114.769 133.021 121.874 134.279C129.013 135.538 135.812 130.81 137.07 123.668L138.838 113.838C148.493 113.872 157.094 106.968 158.861 97.1382L159.201 95.2335L163.349 71.8673C158.657 71.2891 142.102 68.7042 140.742 61.3916Z" fill="#FFBA94"/>
<path opacity="0.5" d="M135.676 111.627L135.302 111.559C125.172 109.757 118.135 100.709 118.611 90.6759C118.679 89.0434 117.863 87.4788 116.435 86.6965L115.925 89.4855C114.837 95.6417 116.639 101.628 120.378 106.083L136.9 124.892L138.838 114.008L138.43 113.838C148.255 114.076 157.06 107.104 158.861 97.1382L159.201 95.2335C157.23 106.253 146.691 113.6 135.676 111.627Z" fill="#FB8E77"/>
<path d="M138.838 106.321C138.736 106.321 138.634 106.287 138.6 106.219C138.464 106.083 138.464 105.879 138.6 105.743C138.6 105.743 140.538 103.941 142.815 105.131C142.985 105.199 143.053 105.403 142.951 105.573C142.883 105.743 142.68 105.811 142.51 105.743C140.674 104.757 139.144 106.185 139.076 106.253C139.008 106.299 138.929 106.321 138.838 106.321Z" fill="#FB8E77"/>
<path d="M144.311 83.9416C144.209 84.6218 143.529 85.098 142.85 84.962C142.17 84.8599 141.694 84.1797 141.83 83.4994C141.966 82.8192 142.612 82.343 143.291 82.4791C143.971 82.5811 144.447 83.2614 144.311 83.9416Z" fill="#233863"/>
<path d="M159.303 86.6285C159.201 87.3088 158.521 87.7509 157.841 87.6489C157.162 87.5129 156.686 86.8666 156.822 86.1864C156.924 85.4721 157.604 85.03 158.283 85.132C158.963 85.2681 159.439 85.9143 159.303 86.6285Z" fill="#233863"/>
<path d="M147.133 93.533C146.521 93.533 145.773 93.431 144.957 93.1249C144.753 93.0909 144.651 92.8868 144.719 92.7167C144.787 92.5467 144.991 92.4446 145.161 92.4786C148.017 93.431 149.241 92.2746 149.615 91.6964C149.683 91.6284 149.717 91.4923 149.717 91.3563L148.255 81.7649C148.221 81.5948 148.357 81.4248 148.527 81.3907C148.731 81.3567 148.901 81.4928 148.935 81.6628L150.396 91.2542C150.43 91.5603 150.362 91.8664 150.193 92.1045C149.819 92.6147 148.935 93.533 147.133 93.533Z" fill="#FB8E77"/>
<path d="M137.512 100.879L134.861 99.383C131.631 97.4783 130.509 93.3288 132.379 90.0637L132.583 89.7576L142.544 95.5056L139.824 100.267C139.348 101.084 138.294 101.356 137.512 100.879Z" fill="white"/>
<path fill-rule="evenodd" clip-rule="evenodd" d="M139.076 89.9957C134.691 89.9957 131.121 86.4244 131.121 82.0709C131.121 77.6833 134.691 74.1121 139.076 74.1121C141.184 74.1121 143.19 74.9283 144.685 76.4249C146.181 77.9214 146.997 79.9281 146.997 82.0369C147.031 86.4244 143.461 89.9957 139.076 89.9957ZM132.481 82.0709C132.481 85.6761 135.439 88.6352 139.076 88.6352C142.714 88.6352 145.671 85.6761 145.637 82.0369C145.637 80.3022 144.957 78.6357 143.733 77.3772C142.476 76.1528 140.844 75.4725 139.076 75.4725C135.439 75.4725 132.481 78.4316 132.481 82.0709Z" fill="white"/>
<path fill-rule="evenodd" clip-rule="evenodd" d="M157.128 93.4988C152.742 93.4988 149.207 89.9616 149.173 85.574C149.173 81.1865 152.742 77.6152 157.128 77.6152C161.513 77.6152 165.049 81.1865 165.049 85.574C165.083 89.9276 161.513 93.4988 157.128 93.4988ZM150.532 85.574C150.532 89.2133 153.49 92.1383 157.128 92.1383C160.765 92.1383 163.723 89.1793 163.689 85.574C163.689 81.9348 160.765 78.9757 157.128 78.9757C153.49 78.9757 150.532 81.9348 150.532 85.574Z" fill="white"/>
<path d="M149.648 84.6899C149.626 84.6899 149.603 84.6899 149.58 84.6899L146.759 84.4178C146.385 84.3838 146.113 84.0437 146.147 83.6695C146.181 83.2954 146.521 83.0233 146.895 83.0573L149.716 83.3294C150.09 83.3634 150.362 83.7035 150.328 84.0777C150.294 84.4178 149.988 84.6899 149.648 84.6899Z" fill="white"/>
<path d="M138.022 71.4591C138.464 71.6292 139.008 71.5611 139.552 71.4931C140.062 71.4251 140.606 71.3911 141.082 71.3571C141.558 71.323 142.102 71.323 142.611 71.323C143.155 71.323 143.699 71.3571 144.107 71.153C144.515 70.9489 144.651 70.4387 144.141 69.8605C143.665 69.3163 142.441 68.7381 140.912 68.8402C139.348 68.9082 138.226 69.6224 137.818 70.2006C137.41 70.8469 137.614 71.323 138.022 71.4591Z" fill="#233863"/>
<path d="M161.445 75.4725C160.969 75.4385 160.493 75.1664 160.017 74.9283C159.541 74.6902 159.065 74.4521 158.623 74.2821C158.215 74.078 157.706 73.8739 157.196 73.6699C156.72 73.4658 156.176 73.2957 155.87 72.9556C155.564 72.6495 155.632 72.1393 156.312 71.7652C156.958 71.4251 158.283 71.323 159.711 71.9693C161.139 72.5815 161.921 73.6358 162.091 74.3501C162.261 75.0984 161.887 75.4725 161.445 75.4725Z" fill="#233863"/>
<path d="M113.103 80.9144C112.967 80.9144 112.831 80.8124 112.797 80.6423C112.729 80.4723 112.865 80.2682 113.035 80.2342L115.449 79.622L114.361 75.5405C114.293 75.3705 114.395 75.1664 114.599 75.1324C114.769 75.0644 114.973 75.2004 115.007 75.3705L116.299 80.0981L113.205 80.8804C113.183 80.9031 113.149 80.9144 113.103 80.9144Z" fill="#FB8E77"/>
<path d="M199.554 148.598H180.822C178.987 148.598 177.525 147.102 177.525 145.265V109.247C177.525 107.41 178.987 105.913 180.822 105.913H199.554C201.39 105.913 202.886 107.41 202.886 109.247V145.265C202.886 147.102 201.39 148.598 199.554 148.598Z" fill="#233863"/>
<path d="M215.6 180.059L213.526 142.238L214.036 137.646C214.716 131.218 212.812 124.824 208.801 119.756C208.427 119.28 208.053 118.804 207.679 118.362V112.172C207.679 110.845 206.591 109.723 205.231 109.723C203.939 109.723 202.886 110.777 202.886 112.103V114.416C202.886 118.872 199.282 122.511 194.829 122.511H187.792L177.253 121.627C175.893 121.491 174.669 122.511 174.567 123.906C174.465 125.028 175.145 126.014 176.131 126.423C176.04 126.445 175.95 126.479 175.859 126.525L175.587 126.491C174.193 126.355 173.003 127.409 172.867 128.769C172.766 130.13 173.785 131.354 175.145 131.456C174.737 131.864 174.431 132.409 174.363 133.021C174.193 134.381 175.179 135.64 176.573 135.776L177.661 135.912C177.706 135.935 177.763 135.969 177.831 136.014C177.831 136.014 177.854 136.059 177.899 136.15C177.219 136.456 176.675 137.068 176.539 137.851C176.335 139.041 177.151 140.197 178.341 140.401C178.341 140.401 186.092 142.952 189.457 143.905L186.602 158.564L186.024 161.693L182.182 160.979L170.25 167.781L171.848 172.271C174.023 178.393 173.343 185.365 170.012 190.773L168.55 193.154L174.397 195.535C181.74 198.562 192.381 201.691 200.268 199.82C202.818 199.242 204.789 198.494 206.319 197.61C211.996 194.651 215.94 187.882 215.6 180.059Z" fill="#FFBA94"/>
<path d="M186.772 127.545C186.772 127.545 186.76 127.545 186.738 127.545L175.961 126.627C175.791 126.627 175.621 126.456 175.655 126.252C175.655 126.082 175.825 125.946 176.029 125.946L186.806 126.865C187.01 126.899 187.146 127.069 187.112 127.239C187.112 127.409 186.942 127.545 186.772 127.545Z" fill="#FB8E77"/>
<path d="M187.01 132.579C186.987 132.579 186.976 132.579 186.976 132.579L176.165 131.66C175.995 131.66 175.859 131.49 175.859 131.286C175.893 131.116 176.063 130.98 176.233 130.98L187.01 131.899C187.214 131.933 187.35 132.103 187.35 132.273C187.316 132.477 187.18 132.579 187.01 132.579Z" fill="#FB8E77"/>
<path d="M188.777 137.613C188.755 137.613 188.744 137.613 188.744 137.613L177.967 136.354C177.797 136.354 177.661 136.184 177.695 135.98C177.695 135.81 177.865 135.674 178.069 135.708L188.812 136.932C189.015 136.966 189.151 137.136 189.117 137.306C189.083 137.477 188.947 137.613 188.777 137.613Z" fill="#FB8E77"/>
<path d="M181.604 179.821C181.582 179.821 181.559 179.821 181.536 179.821C181.332 179.753 181.231 179.583 181.264 179.379L186.67 156.489C186.704 156.319 186.874 156.217 187.078 156.251C187.248 156.285 187.384 156.489 187.316 156.659L181.944 179.549C181.876 179.719 181.74 179.821 181.604 179.821Z" fill="#FB8E77"/>
<path d="M170.114 168.291L163.213 152.374C163.145 152.204 163.247 152 163.417 151.932C163.587 151.83 163.791 151.932 163.859 152.102L170.42 167.305L182.386 160.469C182.556 160.401 182.76 160.435 182.862 160.605C182.93 160.775 182.896 160.979 182.726 161.081L170.114 168.291Z" fill="#374081"/>
</g>
<defs>
<clipPath id="clip0_754_194">
<rect width="308" height="284" fill="white"/>
</clipPath>
</defs>
</svg>
