<svg width="182" height="72" viewBox="0 0 182 72" fill="none" xmlns="http://www.w3.org/2000/svg">
<rect width="72" height="72" rx="36" fill="#E4E4E4"/>
<g clip-path="url(#clip0_312_4748)">
<path d="M47.9866 36.7801C47.9866 35.7522 47.9013 35.002 47.7166 34.2241H35.7043V38.8638H42.7552C42.6131 40.0169 41.8455 41.7533 40.1396 42.9201L40.1157 43.0755L43.9137 45.9507L44.1768 45.9763C46.5935 43.7953 47.9866 40.5864 47.9866 36.7801Z" fill="#4285F4"/>
<path d="M35.7045 49.0048C39.1589 49.0048 42.0588 47.8934 44.177 45.9764L40.1398 42.9202C39.0594 43.6565 37.6094 44.1704 35.7045 44.1704C32.3212 44.1704 29.4497 41.9895 28.4261 38.9751L28.276 38.9875L24.3268 41.9742L24.2751 42.1145C26.379 46.1986 30.7006 49.0048 35.7045 49.0048Z" fill="#34A853"/>
<path d="M28.426 38.9751C28.1559 38.1972 27.9996 37.3636 27.9996 36.5024C27.9996 35.6411 28.1559 34.8076 28.4118 34.0297L28.4046 33.864L24.4059 30.8293L24.2751 30.8902C23.408 32.5849 22.9104 34.4881 22.9104 36.5024C22.9104 38.5166 23.408 40.4197 24.2751 42.1145L28.426 38.9751Z" fill="#FBBC05"/>
<path d="M35.7045 28.8342C38.1069 28.8342 39.7275 29.8483 40.6515 30.6957L44.2623 27.2506C42.0447 25.2363 39.1589 24 35.7045 24C30.7006 24 26.379 26.8061 24.2751 30.8901L28.4119 34.0297C29.4497 31.0152 32.3212 28.8342 35.7045 28.8342Z" fill="#EB4335"/>
</g>
<rect x="109.091" width="72" height="72" rx="36" fill="black"/>
<path d="M148.808 26.3418C149.345 25.7239 149.753 25.0062 150.011 24.2299C150.269 23.4536 150.371 22.634 150.312 21.8181C148.666 21.951 147.138 22.7251 146.057 23.9736C145.54 24.572 145.148 25.2682 144.904 26.0208C144.661 26.7735 144.571 27.5674 144.639 28.3555C145.442 28.3622 146.236 28.184 146.959 27.8349C147.682 27.4857 148.315 26.9748 148.808 26.3418ZM152.382 36.8924C152.392 35.8058 152.678 34.7395 153.214 33.7942C153.75 32.8488 154.518 32.0557 155.445 31.4895C154.86 30.646 154.086 29.9506 153.185 29.4583C152.284 28.966 151.281 28.6904 150.255 28.6533C148.043 28.4264 146.001 29.9438 144.824 29.9438C143.647 29.9438 141.987 28.6817 140.144 28.71C138.939 28.7497 137.764 29.1011 136.736 29.7299C135.707 30.3587 134.858 31.2434 134.273 32.2978C131.777 36.6371 133.635 43.0894 136.131 46.5921C137.265 48.308 138.683 50.2508 140.555 50.1799C142.427 50.109 143.037 49.017 145.207 49.017C147.376 49.017 148.043 50.1799 149.886 50.1373C151.73 50.0948 153.034 48.3789 154.226 46.663C155.069 45.4173 155.729 44.056 156.183 42.6215C155.059 42.1422 154.1 41.3442 153.424 40.326C152.749 39.3079 152.387 38.1142 152.382 36.8924Z" fill="white"/>
<defs>
<clipPath id="clip0_312_4748">
<rect x="22.9092" y="24" width="25.0909" height="25.0909" rx="12.5455" fill="white"/>
</clipPath>
</defs>
</svg>
