<svg width="38" height="38" viewBox="0 0 38 38" fill="none" xmlns="http://www.w3.org/2000/svg">
<path d="M28.5316 17H6.17052C5.44181 17 4.85107 17.6878 4.85107 18.5362V18.6979C4.85107 19.5463 5.44181 20.234 6.17052 20.234H28.5316C29.2603 20.234 29.8511 19.5463 29.8511 18.6979V18.5362C29.8511 17.6878 29.2603 17 28.5316 17Z" fill="#134E4A"/>
<path d="M35.1622 26.8085H6.53996C5.60722 26.8085 4.85107 27.4963 4.85107 28.3447V28.5064C4.85107 29.3548 5.60722 30.0425 6.53996 30.0425H35.1622C36.0949 30.0425 36.8511 29.3548 36.8511 28.5064V28.3447C36.8511 27.4963 36.0949 26.8085 35.1622 26.8085Z" fill="#134E4A"/>
<path d="M35.1622 7.5H6.53996C5.60722 7.5 4.85107 8.18777 4.85107 9.03617V9.19787C4.85107 10.0463 5.60722 10.734 6.53996 10.734H35.1622C36.0949 10.734 36.8511 10.0463 36.8511 9.19787V9.03617C36.8511 8.18777 36.0949 7.5 35.1622 7.5Z" fill="#134E4A"/>
</svg>
