<svg width="244" height="176" viewBox="0 0 244 176" fill="none" xmlns="http://www.w3.org/2000/svg">
<g clip-path="url(#clip0_538_310)">
<path fill-rule="evenodd" clip-rule="evenodd" d="M238.678 130.257C238.578 130.257 238.478 130.243 238.378 130.214C237.798 130.128 237.369 129.762 237.154 129.203C236.875 128.514 236.961 127.632 237.39 127.073C237.712 126.427 238.528 125.739 239.429 125.352C239.257 125.115 239.021 124.943 238.764 124.835C238.163 124.577 237.069 124.534 236.232 124.921C235.802 125.122 235.523 125.409 235.395 125.782C235.352 125.889 235.244 125.954 235.137 125.911C235.008 125.868 234.944 125.739 234.987 125.631C235.137 125.158 235.523 124.792 236.06 124.534C236.875 124.147 238.12 124.104 238.914 124.426C239.3 124.577 239.601 124.835 239.837 125.179C239.994 125.136 240.152 125.101 240.309 125.072C241.21 124.749 242.004 124.771 242.627 125.115C243.27 125.502 243.743 126.255 243.979 127.374C244.022 127.503 243.936 127.611 243.828 127.632C243.7 127.654 243.592 127.589 243.571 127.482C243.356 126.47 242.949 125.803 242.412 125.502C241.897 125.201 241.232 125.201 240.416 125.481C240.302 125.495 240.187 125.524 240.073 125.567C240.524 126.47 240.588 127.697 240.287 128.687C239.987 129.698 239.408 130.257 238.678 130.257ZM239.665 125.717C238.828 126.083 238.056 126.707 237.755 127.31C237.39 127.783 237.326 128.493 237.541 129.031C237.669 129.332 237.905 129.698 238.442 129.784C239.365 129.978 239.751 129.009 239.88 128.579C240.159 127.654 240.073 126.513 239.665 125.717Z" fill="black"/>
<path fill-rule="evenodd" clip-rule="evenodd" d="M60.4957 142.672C59.4442 142.672 58.457 142.263 57.7059 141.489C57.384 141.123 57.1265 140.606 56.9763 140.069C56.4183 140.026 55.8818 139.832 55.4097 139.509C54.5942 138.928 54.0363 138.003 53.8861 136.949C53.7358 135.636 54.1865 134.84 54.8947 133.764C54.9591 133.657 55.0878 133.635 55.1737 133.7C55.281 133.764 55.3024 133.894 55.238 134.001C54.5728 135.012 54.165 135.701 54.3153 136.884C54.444 137.831 54.9376 138.649 55.6672 139.143C56.032 139.402 56.4398 139.574 56.869 139.638C56.7831 139.1 56.7832 138.562 56.8905 138.089C57.1051 137.164 57.6415 136.497 58.4785 136.131C58.9721 135.938 59.4871 135.981 59.8734 136.282C60.3026 136.648 60.4957 137.272 60.367 137.96C60.1524 138.842 59.1437 139.724 58.0064 140.004C57.8061 140.047 57.6129 140.076 57.427 140.09C57.5557 140.499 57.7703 140.908 58.0278 141.187C58.736 141.919 59.6802 142.285 60.6674 142.242C61.7189 142.199 62.7061 141.682 63.3714 140.843C63.4357 140.757 63.5645 140.736 63.6718 140.822C63.7576 140.886 63.7791 141.015 63.6933 141.123C62.9636 142.048 61.8692 142.607 60.6889 142.672C60.6173 142.672 60.553 142.672 60.4957 142.672ZM59.0794 136.432C58.9363 136.432 58.7861 136.468 58.6287 136.54C57.7703 136.906 57.427 137.637 57.3197 138.175C57.2124 138.649 57.2124 139.165 57.3197 139.66C57.5056 139.66 57.6988 139.631 57.8991 139.574C58.8648 139.359 59.7661 138.584 59.9592 137.852C60.0451 137.336 59.9163 136.884 59.6159 136.626C59.4442 136.497 59.2725 136.432 59.0794 136.432Z" fill="black"/>
<path fill-rule="evenodd" clip-rule="evenodd" d="M62.2339 19.3642C62.1051 19.3642 62.0193 19.2781 62.0193 19.149C62.0193 17.3202 62.7275 15.4698 63.8648 14.351C64.6803 13.5549 65.6889 13.1246 66.7834 13.1246C67.6633 11.7476 69.4659 10.9085 71.0754 11.1882C71.9982 11.3388 72.8137 11.8552 73.6077 12.35C75.067 13.2537 76.3331 14.0498 77.9641 12.3285C78.0499 12.2424 78.1787 12.2424 78.2645 12.3285C78.3503 12.4146 78.3503 12.5437 78.2645 12.6297C76.3975 14.6092 74.8738 13.641 73.3716 12.7158C72.6205 12.2424 71.848 11.7476 70.9896 11.597C69.6805 11.3818 68.1139 12.0488 67.2984 13.1461C69.0152 13.3182 69.8951 14.394 70.1312 15.4053C70.3672 16.352 70.0882 17.2772 69.4874 17.6214C69.1225 17.8151 68.3714 17.9872 67.277 16.8899C66.3113 15.9001 66.0538 14.6953 66.5473 13.5549C65.646 13.6195 64.852 13.9852 64.1653 14.6522C63.0923 15.7065 62.4485 17.4278 62.4485 19.149C62.4485 19.2566 62.3626 19.3642 62.2339 19.3642ZM67.0409 13.5549C67.0266 13.5693 67.0195 13.5836 67.0195 13.5979C66.483 14.6307 66.6976 15.685 67.5774 16.5886C68.2427 17.2341 68.8436 17.4708 69.2728 17.2341C69.702 16.9975 69.8951 16.2444 69.7234 15.5129C69.6161 15.061 69.1011 13.641 67.0409 13.5549Z" fill="black"/>
<path fill-rule="evenodd" clip-rule="evenodd" d="M238.656 79.6733C237.154 79.6733 235.974 78.7482 235.674 77.3066C235.395 76.0156 235.824 75.1335 236.232 74.6386C236.811 73.9286 237.755 73.4983 238.742 73.4983C240.116 73.4983 241.275 74.2729 241.833 75.6068C242.069 76.2093 242.026 76.9623 241.725 77.6724C241.36 78.5115 240.674 79.1785 239.923 79.4582C239.508 79.6016 239.086 79.6733 238.656 79.6733ZM238.742 73.9286C237.884 73.9286 237.068 74.2944 236.553 74.9183C236.06 75.5208 235.91 76.3169 236.103 77.2205C236.36 78.4469 237.369 79.243 238.656 79.243C239.028 79.243 239.4 79.1785 239.772 79.0494C240.416 78.8127 240.996 78.2318 241.318 77.5002C241.597 76.8763 241.639 76.2738 241.425 75.779C240.931 74.6171 239.923 73.9286 238.742 73.9286Z" fill="#F2AC30"/>
<path fill-rule="evenodd" clip-rule="evenodd" d="M23.842 138.498C22.3398 138.498 21.1595 137.551 20.8591 136.131C20.5801 134.819 21.0093 133.958 21.4171 133.442C21.9965 132.732 22.9407 132.301 23.9279 132.301C25.3013 132.301 26.4602 133.097 27.0181 134.41C27.2542 135.034 27.2113 135.765 26.9108 136.475C26.546 137.314 25.8593 138.003 25.1082 138.261C24.6933 138.419 24.2712 138.498 23.842 138.498ZM23.9279 132.732C23.0695 132.732 22.254 133.097 21.739 133.721C21.2454 134.324 21.0952 135.141 21.2883 136.024C21.5458 137.271 22.5544 138.068 23.842 138.068C24.214 138.068 24.586 137.996 24.958 137.852C25.6018 137.637 26.1812 137.035 26.5031 136.303C26.7821 135.701 26.825 135.077 26.6104 134.582C26.1168 133.42 25.1082 132.732 23.9279 132.732Z" fill="#10AA99"/>
<path fill-rule="evenodd" clip-rule="evenodd" d="M233.935 108.763C233.141 108.763 232.39 108.376 231.94 107.709L227.648 101.361C227.283 100.824 227.154 100.178 227.283 99.5541C227.39 98.9087 227.755 98.3708 228.291 98.005L234.622 93.7018C235.008 93.4221 235.48 93.2715 235.974 93.2715C236.768 93.2715 237.519 93.6803 237.97 94.3258L242.262 100.673C243.013 101.792 242.734 103.298 241.618 104.029L235.287 108.354C234.901 108.612 234.429 108.763 233.935 108.763ZM235.974 93.7018C235.566 93.7018 235.18 93.8309 234.858 94.0461L228.527 98.3708C228.098 98.6505 227.798 99.1023 227.69 99.6402C227.605 100.157 227.712 100.673 228.012 101.125L232.304 107.472C232.669 108.01 233.292 108.333 233.935 108.333C234.343 108.333 234.729 108.225 235.051 107.988L241.382 103.685C242.283 103.061 242.519 101.835 241.918 100.931L237.605 94.584C237.24 94.0245 236.618 93.7018 235.974 93.7018Z" fill="#10AA99"/>
<path fill-rule="evenodd" clip-rule="evenodd" d="M45.2161 164.661C44.3362 164.661 43.6924 163.951 43.5208 162.832L42.2761 154.011C42.1902 153.279 42.319 152.655 42.6838 152.246C43.1559 151.687 44.0143 151.558 44.9371 151.945L53.1777 155.259C53.9718 155.581 54.4868 156.119 54.5726 156.765C54.6585 157.41 54.3366 158.056 53.6499 158.594L46.6539 164.08C46.1818 164.468 45.6667 164.661 45.2161 164.661ZM43.907 152.139C43.5208 152.139 43.2203 152.268 43.0057 152.526C42.7267 152.849 42.6194 153.344 42.7053 153.946L43.95 162.768C44.0787 163.693 44.5508 164.231 45.2161 164.231C45.5809 164.231 45.9886 164.059 46.3749 163.757L53.3709 158.249C53.9288 157.819 54.2078 157.303 54.1434 156.829C54.0791 156.335 53.6713 155.926 53.0061 155.668L44.7654 152.333C44.465 152.203 44.1789 152.139 43.907 152.139Z" fill="#F2AC30"/>
<path fill-rule="evenodd" clip-rule="evenodd" d="M111.957 17.3633C111.556 17.3633 111.141 17.2486 110.712 17.0191L102.943 12.7374C102.171 12.3071 101.742 11.7261 101.72 11.0592C101.72 10.4137 102.128 9.81123 102.858 9.35939L110.454 4.75499C110.912 4.48246 111.341 4.34619 111.742 4.34619C112.729 4.34619 113.373 5.14228 113.416 6.36869L113.588 15.2763C113.609 15.9648 113.416 16.5457 113.051 16.9115C112.772 17.2127 112.386 17.3633 111.957 17.3633ZM111.742 4.77651C111.42 4.77651 111.055 4.88409 110.69 5.12076L103.094 9.72516C102.471 10.0909 102.149 10.5643 102.149 11.0592C102.171 11.554 102.514 12.0058 103.137 12.3501L110.927 16.6318C111.656 17.0406 112.343 17.0406 112.751 16.6318C113.03 16.3305 113.18 15.8572 113.158 15.2763L112.987 6.3902C112.965 5.37895 112.493 4.77651 111.742 4.77651Z" fill="#F2C87E"/>
<path fill-rule="evenodd" clip-rule="evenodd" d="M142.494 175.828C124.725 175.828 109.317 174.494 99.1023 172.062C87.4709 169.308 79.7239 164.532 76.0757 157.84C72.9855 152.182 72.8567 145.254 75.6465 137.228C75.761 136.927 75.8754 136.611 75.9899 136.282C78.1788 129.913 82.2562 118.079 101.635 94.4977C115.734 77.3495 133.803 67.9041 152.559 67.9041C159.491 67.9041 166.358 69.1735 173.01 71.6909C189.578 77.9735 203.419 88.0644 213.055 100.888C221.188 111.689 226.231 124.297 227.304 136.432C228.463 149.514 224.75 160.293 217.604 164.575C204.6 172.364 170.521 175.828 142.494 175.828ZM152.559 68.3344C133.953 68.3344 115.97 77.7153 101.956 94.7774C82.621 118.294 78.5651 130.085 76.3976 136.411C76.2831 136.741 76.1687 137.056 76.0542 137.357C73.3074 145.275 73.4361 152.096 76.462 157.625C80.0458 164.209 87.707 168.921 99.2096 171.654C109.403 174.063 124.768 175.397 142.494 175.397C170.457 175.397 204.449 171.933 217.39 164.209C224.386 160.014 228.012 149.385 226.875 136.454C225.029 115.519 209.771 86.1065 172.86 72.0997C166.251 69.6038 159.426 68.3344 152.559 68.3344Z" fill="black"/>
<mask id="mask0_538_310" style="mask-type:luminance" maskUnits="userSpaceOnUse" x="0" y="26" width="111" height="100">
<path d="M2.49999 67.2888C0.336826 76.7558 -2.4637 103.078 7.16539 113.199C16.7945 123.323 24.093 124.723 40.555 125.035C57.0191 125.345 65.249 126.279 77.3631 125.5C89.4773 124.723 108.424 124.295 110.444 96.8495C114.092 47.279 76.9554 24.4076 47.1368 27.0541C17.3181 29.7005 6.57739 49.4306 2.49999 67.2888Z" fill="white"/>
</mask>
<g mask="url(#mask0_538_310)">
<path d="M58.178 50.6053C59.0364 52.0038 59.7446 54.4997 60.1309 57.2322C60.3884 59.1256 60.9035 59.3193 62.7705 60.1799C64.6375 61.0405 65.0452 62.6757 64.0366 63.6009C62.5988 64.9349 62.5988 64.2034 62.4057 65.7095C62.2769 66.6992 62.5559 67.4953 61.2039 67.065C60.6889 66.9144 59.5944 66.2474 59.4442 66.3765C58.9721 66.7422 59.1223 68.0977 60.882 69.109C61.5473 69.4963 62.0623 69.4317 61.5043 72.4009C61.0108 74.9828 57.8991 75.3916 54.8088 74.7892C51.7186 74.2083 52.3624 76.5535 51.1392 79.8884C49.916 83.2019 49.7443 85.0738 51.4182 86.4723C53.1135 87.8708 54.4655 94.5838 54.2723 96.219C54.1007 97.8542 48.285 101.254 43.3277 95.7672C40.6452 92.0234 37.6194 84.8371 37.6194 84.8371C37.6194 84.8371 40.774 80.4694 40.7096 76.2092C40.6452 71.9276 38.8426 55.8767 44.7226 51.3153C50.6027 46.7755 57.5986 49.4865 58.178 50.6053Z" fill="white"/>
<path fill-rule="evenodd" clip-rule="evenodd" d="M49.4009 98.973C47.8343 98.973 45.4737 98.4566 43.1775 95.8962C40.495 92.174 37.4477 84.9877 37.4262 84.9231C37.4047 84.8586 37.4047 84.7725 37.4477 84.708C37.4906 84.665 40.5594 80.3403 40.495 76.2092C40.495 75.6068 40.4521 74.7892 40.3877 73.8209C40.0872 67.7535 39.4434 55.1451 44.5938 51.1647C47.3622 49.0131 50.2593 48.5613 52.2121 48.5613C55.3668 48.5613 57.9634 49.7016 58.3711 50.4977C59.2081 51.8747 59.9163 54.306 60.3455 57.1891C60.5815 58.9535 61.0107 59.1256 62.749 59.9432L62.8563 59.9862C63.9293 60.4811 64.6375 61.2557 64.7662 62.1378C64.8735 62.7403 64.6589 63.3212 64.1868 63.773C63.6718 64.2464 63.3499 64.4615 63.1138 64.6121C62.749 64.8488 62.749 64.8488 62.6202 65.731C62.5988 65.9246 62.5988 66.0967 62.5773 66.2473C62.5558 66.9359 62.4915 67.7104 61.1395 67.2801C60.9249 67.2156 60.6244 67.0649 60.324 66.9143C60.0665 66.8068 59.6802 66.6131 59.53 66.5916C59.4656 66.6777 59.4227 66.8283 59.4441 67.0219C59.4656 67.5168 59.8948 68.2914 60.9893 68.9368C61.0465 68.9655 61.1037 68.9942 61.1609 69.0229C61.8691 69.3887 62.2339 69.7329 61.7189 72.4439C61.3755 74.2513 59.7446 75.241 57.1479 75.241C56.3968 75.241 55.6028 75.1764 54.7659 75.0043C54.4654 74.9469 54.1936 74.9183 53.9504 74.9183C52.6843 74.9183 52.4482 75.7143 52.0405 77.4786C51.8688 78.2102 51.6756 79.0493 51.3323 79.953C50.0447 83.4816 50.0876 85.0953 51.5683 86.3002C53.3281 87.7632 54.68 94.5192 54.4869 96.2405C54.3796 97.3593 52.1907 98.973 49.4009 98.973ZM37.8769 84.8586C38.2631 85.7838 41.0529 92.217 43.4994 95.6381C45.6883 98.0478 47.9201 98.5427 49.4009 98.5427C51.9975 98.5427 53.9719 97.0366 54.0577 96.1975C54.2294 94.6268 52.8774 87.9569 51.2894 86.6444C49.4438 85.1168 49.7442 83.0513 50.9245 79.8024C51.2679 78.9202 51.461 78.1026 51.6113 77.3926C52.019 75.7143 52.298 74.4879 53.9504 74.4879C54.2294 74.4879 54.5084 74.531 54.8517 74.5955C55.6672 74.7461 56.4397 74.8107 57.1479 74.8107C58.8218 74.8107 60.9034 74.4019 61.2897 72.3579C61.7833 69.8405 61.4614 69.6684 60.9678 69.4102C60.9106 69.3815 60.8533 69.3456 60.7961 69.3026C59.7231 68.7002 59.0579 67.8395 59.0149 67.0434C58.972 66.6777 59.1008 66.3764 59.3154 66.2043C59.5085 66.0537 59.8304 66.2043 60.5171 66.5271C60.7961 66.6777 61.0751 66.8068 61.2897 66.8713C61.5043 66.943 61.6831 66.9789 61.8262 66.9789C62.0623 66.9789 62.1266 66.8713 62.1481 66.2258C62.1696 66.0537 62.1696 65.8816 62.2125 65.6879C62.3412 64.6767 62.3842 64.5691 62.8777 64.2464C63.0923 64.1173 63.4142 63.9021 63.9078 63.4503C64.2726 63.106 64.4229 62.6757 64.337 62.2024C64.2297 61.4923 63.6074 60.8038 62.6846 60.3735L62.5558 60.3305C60.7961 59.5129 60.1952 59.2332 59.9163 57.2537C59.5085 54.4351 58.8218 52.0469 58.0063 50.7129C57.7273 50.1965 55.4311 48.9916 52.2121 48.9916C50.3237 48.9916 47.5339 49.4219 44.8514 51.4874C39.8941 55.3388 40.5164 67.7965 40.8169 73.7994C40.8813 74.7676 40.9242 75.6068 40.9242 76.1877C40.9886 80.1681 38.349 84.1701 37.8769 84.8586Z" fill="black"/>
<path d="M40.5593 125.029C41.6538 125.502 51.8902 126.04 51.8902 126.04C51.8902 126.04 56.3968 111.646 54.5298 95.1432C50.7957 98.4137 46.611 97.6391 42.4263 94.1965C45.0659 102.308 43.8212 118.961 40.5593 125.029Z" fill="black"/>
<path d="M56.3324 61.1265C56.547 61.8581 57.0835 62.3529 57.4913 62.2238C57.899 62.0947 58.0492 61.3847 57.8346 60.6747C57.5986 59.9431 57.0835 59.4483 56.6758 59.5774C56.2466 59.7065 56.0964 60.4165 56.3324 61.1265Z" fill="black"/>
<path d="M57.0191 59.9217C57.0048 59.9217 56.9833 59.9217 56.9547 59.9217C56.8474 59.8787 56.783 59.7711 56.8259 59.6635L57.2122 58.3295C57.2337 58.222 57.3624 58.1574 57.4697 58.1789C57.577 58.222 57.6414 58.3295 57.62 58.4586L57.2337 59.7711C57.2122 59.8787 57.1264 59.9217 57.0191 59.9217Z" fill="black"/>
<path d="M46.6969 103.857C45.4952 94.9927 41.5465 89.1188 38.0485 83.6968C37.512 82.8577 37.0185 82.9868 36.7824 83.0298C35.1085 83.3526 33.2415 84.1487 33.7136 85.1814C33.8209 85.3966 33.9711 85.6117 34.1643 85.8699C33.4561 85.999 32.5762 86.1927 31.5462 86.4078C27.6619 87.2685 25.2584 88.8176 22.8549 91.2274C20.4514 93.6372 8.13333 108.612 4.72119 112.421C9.22779 121.134 16.9534 122.425 16.9534 122.425C16.9534 122.425 24.0137 115.304 28.4345 109.86C28.2843 110.936 27.7478 121.07 26.1812 125.029C28.9281 126.621 36.5678 126.556 40.7954 126.363C41.5036 127.008 44.2076 126.427 44.2076 126.427C44.2076 126.427 47.9416 113.045 46.6969 103.857Z" fill="#10AA99"/>
<path d="M33.6063 53.0151C31.5676 53.7681 29.2928 55.64 28.0696 63.6439C27.4902 67.5168 26.0523 71.6693 26.3099 75.6067C26.5674 79.3075 29.7649 80.3187 33.0054 80.9642C35.881 81.5451 47.0187 84.1916 47.7055 79.3935C48.5424 73.7779 39.7224 70.9808 40.9885 65.774C41.246 64.6982 42.2975 63.3857 43.392 63.149C44.7869 62.8478 45.1946 64.0312 46.2676 64.7627C47.5982 65.6449 48.3922 65.1285 49.1862 63.7945C49.9373 62.5251 49.6369 60.5026 49.5296 59.0825C49.3793 57.2322 49.1433 56.5437 50.7528 56.0273C52.9417 55.2957 54.8087 53.8112 52.7056 51.3153C55.4954 54.6503 56.9118 54.1339 59.1651 52.6708C61.4399 51.2077 61.5686 49.8737 60.6888 47.3564C59.8089 44.839 57.1264 40.9877 52.4267 41.5686C47.7055 42.1495 48.1561 43.4405 42.5121 44.6023C36.8682 45.7857 33.2629 47.464 33.6063 53.0151Z" fill="black"/>
<path d="M54.68 57.3827C54.6657 57.3827 54.6442 57.3755 54.6156 57.3612C54.5083 57.3181 54.4439 57.2106 54.4868 57.0815C54.6371 56.6727 55.4955 54.4995 57.4912 54.0907C57.62 54.0692 57.7273 54.1338 57.7488 54.2629C57.7702 54.3705 57.7058 54.4995 57.5771 54.5211C55.8174 54.8868 55.0233 56.8448 54.8946 57.2321C54.8517 57.3181 54.7873 57.3827 54.68 57.3827Z" fill="black"/>
<path d="M40.6237 126.191C40.4949 126.169 40.4091 126.083 40.4091 125.954C40.4306 125.76 40.4735 125.266 40.5379 124.512C40.8598 120.188 41.7611 108.698 41.4392 106.073C41.0958 103.319 41.8255 102.631 42.9628 101.577C43.0916 101.447 43.2347 101.311 43.392 101.168C42.8341 100.823 41.3963 99.8983 40.2803 99.2098C39.143 98.4998 38.8854 97.5531 38.2202 94.9927C38.0056 94.2396 37.7695 93.379 37.4691 92.3247C36.5463 89.0973 35.2372 87.5052 34.3788 86.4509C34.1642 86.1927 33.9711 85.956 33.8209 85.7409C33.7565 85.6548 33.778 85.5257 33.8638 85.4396C33.9711 85.3751 34.0999 85.3966 34.1642 85.5042C34.3145 85.6978 34.4861 85.913 34.7007 86.1712C35.6021 87.2685 36.9326 88.9037 37.8983 92.1956C38.1987 93.2499 38.4348 94.1536 38.6279 94.8851C39.2717 97.3164 39.5078 98.2416 40.5164 98.844C41.8898 99.7047 43.8427 100.931 43.8642 100.953C43.9071 100.996 43.95 101.039 43.95 101.103C43.95 101.168 43.9285 101.232 43.8856 101.275C43.671 101.512 43.4564 101.706 43.2418 101.899C42.1474 102.911 41.5465 103.491 41.8469 106.009C42.1903 108.677 41.289 120.209 40.9456 124.556C40.9027 125.287 40.8598 125.803 40.8383 125.976C40.8383 126.105 40.7525 126.191 40.6237 126.191Z" fill="white"/>
<path d="M70.6034 98.0263L68.9725 102.846C68.9725 102.846 65.0882 95.7672 62.5989 92.6474C60.2812 89.7427 56.9549 87.9139 54.2939 86.9241C52.5127 83.9549 50.0019 83.5461 50.0019 83.5461C50.0019 83.5461 49.7873 84.2347 50.1735 85.1168C50.5384 86.0205 54.5299 92.9486 53.6071 104.008C52.6629 115.067 49.4868 126.04 49.4868 126.04H51.8903C51.8903 126.04 51.9118 125.983 51.9547 125.868C53.7574 126.105 57.4485 126.47 57.5558 125.653C57.7275 124.577 59.8091 115.841 61.0537 113.13C64.7878 120.059 68.2428 121.457 73.243 119.349C76.8268 117.842 79.7669 105.794 80.1531 101.06C80.239 100.974 70.6034 98.0263 70.6034 98.0263Z" fill="#10AA99"/>
<path d="M51.8902 126.255C51.8759 126.255 51.8544 126.255 51.8258 126.255C51.7185 126.212 51.6541 126.105 51.697 125.975C51.74 125.825 56.5041 110.161 57.1908 107.149C57.899 104.072 57.8775 103.707 57.4269 102.803C56.8474 101.663 56.3324 100.673 56.3324 100.673C56.2895 100.565 56.3324 100.436 56.4182 100.393C56.9547 100.07 58.2638 99.0376 58.0277 98.1554C57.5342 96.1975 55.6457 89.7427 54.2722 87.2899L54.2293 87.2038C54.1649 87.0963 54.2079 86.9672 54.2937 86.9026C54.401 86.8596 54.5298 86.8811 54.5941 86.9887L54.6371 87.0747C56.0534 89.5706 57.9419 96.0684 58.4569 98.0479C58.7359 99.1882 57.3196 100.307 56.8045 100.651C56.9762 100.974 57.3625 101.749 57.8131 102.609C58.3496 103.663 58.3282 104.18 57.62 107.257C56.9333 110.269 52.1477 125.954 52.1048 126.105C52.0619 126.212 51.976 126.255 51.8902 126.255Z" fill="white"/>
<path d="M61.0536 113.346C61.025 113.346 60.9964 113.338 60.9677 113.324C60.8604 113.26 60.8175 113.13 60.8604 113.023C64.3584 105.363 63.0494 102.609 62.2768 100.974C62.148 100.673 62.0193 100.436 61.9334 100.178C61.912 100.07 61.9549 99.9628 62.0837 99.9197C62.191 99.8767 62.3197 99.9412 62.3412 100.049C62.427 100.264 62.5343 100.501 62.6631 100.78C63.4786 102.502 64.8305 105.363 61.2467 113.217C61.2253 113.281 61.1394 113.346 61.0536 113.346Z" fill="black"/>
<path d="M70.2385 105.987C70.1527 105.987 70.0883 105.944 70.0454 105.858C70.0454 105.837 69.187 104.051 68.4144 102.179C68.3715 102.071 68.4144 101.942 68.5217 101.899C68.629 101.856 68.7578 101.921 68.8007 102.028C69.5732 103.857 70.4316 105.665 70.4316 105.665C70.4746 105.772 70.4316 105.901 70.3243 105.966C70.2957 105.98 70.2671 105.987 70.2385 105.987Z" fill="black"/>
<path d="M71.2256 96.176C72.1054 93.4219 73.393 85.9989 73.672 83.2664C73.9725 80.5124 72.3415 76.661 74.2514 74.2082C76.1828 71.7554 77.4061 70.529 77.9211 69.3026C78.4576 68.0762 79.6808 67.9041 80.3032 69.1305C80.947 70.3569 79.9598 72.53 78.5005 74.0361C82.0629 71.7554 82.3419 72.573 83.4578 70.8302C84.5737 69.0659 86.7197 64.5691 88.1146 64.6982C89.2734 63.1275 90.6254 63.9882 90.8615 66.1613C91.5482 66.0967 92.192 67.7319 91.7199 70.1848C93.4152 71.1745 93.2435 74.7892 90.8615 77.5432C88.458 80.2972 83.9299 81.9109 82.9427 84.1486C81.9341 86.3647 80.3032 99.3818 80.3032 99.3818L71.2256 96.176Z" fill="white"/>
<path fill-rule="evenodd" clip-rule="evenodd" d="M80.3032 99.597C80.2889 99.597 80.2674 99.5899 80.2388 99.5755L71.1612 96.3697C71.0539 96.3266 70.9896 96.219 71.0325 96.1115C71.9123 93.3359 73.1785 85.8914 73.4575 83.245C73.5648 82.3198 73.436 81.2655 73.3072 80.1467C73.0497 77.9951 72.7707 75.7574 74.0798 74.0792C74.6807 73.3261 75.1957 72.7022 75.6678 72.1212C76.6979 70.8733 77.3846 70.0557 77.728 69.2166C78.0284 68.5066 78.5649 68.0763 79.1658 68.0763C79.7023 68.0763 80.1959 68.4205 80.4963 69.0445C81.0758 70.1203 80.4963 71.7985 79.4877 73.197C80.4105 72.6591 81.0543 72.3794 81.505 72.1643C82.3634 71.7985 82.6853 71.6479 83.2861 70.7227C83.5222 70.3354 83.8012 69.819 84.1231 69.2811C85.5824 66.6992 86.8914 64.5477 88.0073 64.4831C88.5224 63.8161 89.016 63.687 89.3593 63.687C90.1963 63.687 90.8615 64.5692 91.0546 65.9677C91.1834 65.9892 91.3551 66.0753 91.5268 66.2689C91.956 66.8068 92.3208 68.0978 91.956 70.0772C92.5139 70.4645 92.8573 71.0885 93.0075 71.9276C93.2865 73.7134 92.5139 75.9726 91.0117 77.6939C89.8958 78.9848 88.3292 79.9961 86.827 80.9858C85.1961 82.0831 83.6295 83.0943 83.1359 84.2347C82.1702 86.3863 80.5393 99.2743 80.5178 99.4034C80.5178 99.4679 80.4749 99.5325 80.432 99.554C80.389 99.5827 80.3461 99.597 80.3032 99.597ZM71.5046 96.0254L80.1315 99.0807C80.3676 97.1657 81.8054 86.1281 82.7282 84.0626C83.2861 82.8146 84.8956 81.7604 86.591 80.6415C88.0717 79.6518 89.5954 78.6621 90.6898 77.3926C92.1062 75.7789 92.8573 73.6489 92.5783 71.9921C92.4495 71.2391 92.1276 70.6582 91.6126 70.3785C91.5482 70.3139 91.5053 70.2278 91.5268 70.1418C91.8487 68.356 91.5911 67.0435 91.1834 66.5486C91.119 66.4626 91.0117 66.3765 90.883 66.3765C90.7757 66.3765 90.6469 66.2904 90.6469 66.1829C90.5182 64.9349 89.9817 64.1173 89.3593 64.1173C88.9945 64.1173 88.6297 64.354 88.2863 64.8274C88.2434 64.8919 88.179 64.9134 88.0932 64.9134C87.0846 64.9134 85.518 67.6675 84.4879 69.4963C84.166 70.0342 83.887 70.5506 83.6295 70.9379C82.9642 71.9921 82.578 72.1858 81.6766 72.5731C81.0328 72.8528 80.1315 73.2616 78.6293 74.2298C78.522 74.2728 78.4147 74.2513 78.3503 74.1653C78.2645 74.1007 78.286 73.9716 78.3503 73.8855C79.6809 72.5085 80.7324 70.4215 80.1315 69.2381C79.874 68.7648 79.5521 68.5066 79.1658 68.5066C78.7581 68.5066 78.3503 68.8508 78.1143 69.3887C77.7495 70.2709 77.0413 71.11 75.9897 72.4009C75.5391 72.9604 75.024 73.6058 74.4232 74.3374C73.2214 75.8865 73.4789 78.0166 73.7364 80.1036C73.8652 81.244 73.994 82.3198 73.8867 83.288C73.6077 85.8699 72.3845 93.0992 71.5046 96.0254Z" fill="black"/>
<path d="M80.6037 78.0595C80.5179 78.0595 80.4106 77.9735 80.3891 77.8874C80.1101 76.6395 78.9942 74.617 78.3933 74.2082C78.286 74.1437 78.2646 74.0146 78.3289 73.9285C78.3933 73.8209 78.5221 73.7994 78.6294 73.8639C79.3805 74.3588 80.5179 76.5319 80.8183 77.7798C80.8398 77.9089 80.7754 78.0165 80.6466 78.038C80.6323 78.0524 80.618 78.0595 80.6037 78.0595Z" fill="black"/>
<path d="M87.707 76.8761C87.6426 76.8761 87.5568 76.8331 87.5139 76.7686C87.2993 76.3383 84.7241 73.2184 83.7369 72.8957C83.6296 72.8527 83.5653 72.7451 83.6082 72.6375C83.6511 72.5084 83.7584 72.4439 83.8657 72.4869C85.0031 72.8742 87.6641 76.1016 87.9002 76.5749C87.9645 76.6825 87.9216 76.8116 87.8143 76.8546C87.7714 76.869 87.7356 76.8761 87.707 76.8761Z" fill="black"/>
<path d="M87.192 77.1773C87.1061 77.1773 87.0203 77.1343 86.9988 77.0482C86.9345 76.9406 86.9988 76.8115 87.1061 76.7685C87.7714 76.4457 89.2521 74.5523 89.6599 72.3577C89.853 71.2389 90.1964 70.5504 90.7114 70.2492C91.1621 69.9479 91.6771 70.0555 92.0205 70.1631C92.1278 70.1846 92.1921 70.3137 92.1707 70.4213C92.1278 70.5289 92.0205 70.5934 91.9132 70.5719C91.484 70.4428 91.1835 70.4643 90.926 70.6149C90.5397 70.8516 90.2608 71.4756 90.0676 72.4438C89.6599 74.6814 88.1148 76.7685 87.2778 77.1558C87.2492 77.1701 87.2206 77.1773 87.192 77.1773Z" fill="black"/>
<path d="M86.4192 75.2409C86.3763 75.2409 86.3119 75.2194 86.269 75.1763C86.1832 75.0903 86.2046 74.9397 86.2905 74.8751C87.5566 73.7563 88.0716 72.1426 88.5438 69.7328C88.973 67.5167 89.8314 66.2688 91.0546 66.0536C91.1619 66.0321 91.2692 66.1182 91.2906 66.2257C91.3121 66.3548 91.2477 66.4624 91.119 66.4839C90.0889 66.6776 89.3592 67.7964 88.973 69.8189C88.4794 72.3147 87.9429 74.0145 86.5694 75.1979C86.5265 75.2266 86.4764 75.2409 86.4192 75.2409Z" fill="black"/>
<path d="M85.0888 73.7348C85.0458 73.7348 85.0029 73.7204 84.96 73.6917C84.8741 73.6272 84.8527 73.4766 84.9171 73.3905C85.5394 72.4869 86.3334 69.9049 86.9772 67.8394C87.4493 66.2903 87.8571 64.9563 88.1575 64.4184C88.2219 64.3108 88.3507 64.2678 88.458 64.3323C88.5653 64.3969 88.5867 64.526 88.5438 64.6336C88.2648 65.1284 87.8356 66.5054 87.385 67.9685C86.6983 70.1847 85.9257 72.6805 85.2604 73.6272C85.2175 73.6917 85.1531 73.7348 85.0888 73.7348Z" fill="black"/>
<path d="M27.9839 110.527C27.9267 110.527 27.8766 110.513 27.8337 110.484C27.7478 110.398 27.7264 110.269 27.8122 110.183C29.1213 108.634 31.7609 105.837 31.7823 105.815C31.8682 105.729 31.9969 105.729 32.0828 105.794C32.1686 105.88 32.1686 106.03 32.0828 106.116C32.0613 106.138 29.4432 108.913 28.1341 110.463C28.0912 110.506 28.0268 110.527 27.9839 110.527Z" fill="black"/>
<path d="M70.8394 95.4659C69.981 97.0796 69.4875 99.7046 69.6591 99.9412C69.8523 100.178 76.2044 100.694 80.5608 103.814C81.548 104.287 81.8699 99.683 81.7197 99.1451C81.3119 97.7466 71.3759 94.885 70.8394 95.4659Z" fill="black"/>
<path d="M46.6111 103.685C46.5538 103.685 46.5109 103.664 46.4823 103.621C46.4609 103.621 44.4865 101.921 43.5852 101.297C43.4779 101.232 43.4565 101.103 43.5208 100.996C43.5852 100.91 43.714 100.888 43.8213 100.953C44.7655 101.577 46.6754 103.233 46.7613 103.298C46.8471 103.384 46.8471 103.513 46.7827 103.621C46.7398 103.664 46.6754 103.685 46.6111 103.685Z" fill="white"/>
<path d="M53.6929 102.803C53.6356 102.803 53.5856 102.781 53.5427 102.738C53.4568 102.652 53.4568 102.523 53.5427 102.437C54.3581 101.62 55.4097 100.996 56.0964 100.565C56.2681 100.465 56.4111 100.379 56.5256 100.307C56.6329 100.243 56.7616 100.264 56.826 100.372C56.8904 100.479 56.8689 100.608 56.7616 100.673C56.6472 100.745 56.497 100.831 56.311 100.931C55.6457 101.34 54.6156 101.964 53.8431 102.738C53.8002 102.781 53.7501 102.803 53.6929 102.803Z" fill="white"/>
<path d="M47.448 72.2288C47.2119 70.0987 45.5595 67.9256 43.5638 69.1951C41.847 70.2924 41.3319 73.2616 42.8985 74.6816C43.5637 75.2841 44.6582 75.5638 45.5595 75.3917C47.0832 75.0904 47.5982 73.6704 47.448 72.2288Z" fill="#F2AC30"/>
</g>
<path fill-rule="evenodd" clip-rule="evenodd" d="M67.7922 126.019C63.6075 126.019 59.5086 125.868 54.766 125.674C50.6886 125.524 46.0532 125.352 40.5595 125.244C24.4645 124.943 16.932 123.781 7.01752 113.346C-2.27465 103.578 -0.171572 78.0597 2.29633 67.2372C7.91884 42.58 23.0052 28.9819 47.1262 26.8304C48.6713 26.7013 50.2379 26.6367 51.826 26.6367C67.7707 26.6367 83.7799 33.6509 94.6601 45.3986C103.029 54.4137 112.579 70.6582 110.648 96.8646C108.673 123.759 90.4325 124.9 78.372 125.653L77.3848 125.717C74.1658 125.911 71.1185 126.019 67.7922 126.019ZM51.826 27.067C50.2594 27.067 48.6928 27.1316 47.1477 27.2607C23.2413 29.3908 8.30512 42.8812 2.70407 67.3448C0.257628 78.0812 -1.84545 103.405 7.31796 113.045C17.1466 123.372 24.6147 124.513 40.5595 124.814C46.0747 124.921 50.6886 125.093 54.766 125.244C59.5086 125.438 63.6075 125.588 67.7922 125.588C71.097 125.588 74.1443 125.502 77.3419 125.287L78.3505 125.223C90.2608 124.469 108.287 123.351 110.24 96.8431C111.742 76.2093 106.248 58.5233 94.3596 45.6783C83.5438 34.0167 67.642 27.067 51.826 27.067Z" fill="black"/>
<path d="M73.7579 37.4161C76.6765 36.6415 85.9686 34.8772 90.84 33.8659C95.7115 32.8332 101.012 32.1447 101.72 32.4674C102.407 32.7686 94.6814 42.5368 91.0761 46.4097C89.8743 47.2273 88.2434 45.7212 88.2434 45.7212C84.8312 49.2713 80.9684 50.6053 80.3461 50.7129C79.7023 50.842 79.3804 46.9261 79.316 44.5809C79.2517 42.2356 79.6808 41.7623 77.7494 40.8371C71.7407 37.9109 73.7579 37.4161 73.7579 37.4161Z" fill="#10AA99"/>
<path d="M80.3461 50.9281C80.2388 50.9281 80.153 50.8851 80.1315 50.7775C80.0886 50.6699 80.1744 50.5408 80.2817 50.5193C80.6036 50.3902 81.741 48.5183 82.5994 47.1628C83.5007 45.6782 84.3591 44.3012 84.8742 43.7848C85.8184 42.8166 94.6599 36.7707 98.4154 34.2318L80.0457 41.5472C79.9169 41.5902 79.8096 41.5257 79.7667 41.4181C79.7238 41.3105 79.7667 41.1814 79.874 41.1384L100.111 33.0914C100.218 33.0484 100.347 33.0914 100.39 33.199C100.433 33.3066 100.39 33.4357 100.282 33.4787C99.6601 33.8015 86.1618 43.0748 85.1746 44.0861C84.7025 44.5594 83.8012 46.001 82.9642 47.378C81.4835 49.7663 80.8182 50.8205 80.389 50.9281C80.3747 50.9281 80.3604 50.9281 80.3461 50.9281Z" fill="black"/>
<path d="M88.6297 46.1731C88.5725 46.1731 88.5295 46.1659 88.5009 46.1515L88.3936 46.0655C87.106 45.1188 85.4965 43.9354 85.1103 44.129C85.003 44.1936 84.8742 44.1506 84.8313 44.043C84.7669 43.9354 84.8098 43.8063 84.9171 43.7418C85.4965 43.462 86.6554 44.2581 88.6512 45.7212L88.737 45.7858C88.8443 45.8718 88.8657 46.0009 88.8014 46.087C88.7584 46.1515 88.6941 46.1731 88.6297 46.1731Z" fill="black"/>
<path d="M105.133 80.8783C102.686 81.0935 101.313 82.6211 101.549 86.9243C101.806 91.249 100.819 95.6812 102.536 97.3595C104.231 99.0162 108.523 99.0162 112.515 99.1023C116.485 99.1668 121.635 99.0377 123.159 99.0162C126.743 98.9732 128.03 98.3492 128.503 95.5306C128.803 93.8739 128.116 84.5145 128.073 83.5463C128.03 81.0935 126.442 80.7707 122.966 80.6201C119.64 80.4695 107.386 80.6631 105.133 80.8783Z" fill="#F2AC30"/>
<path d="M114.897 92.2816C114.868 92.2816 114.847 92.2816 114.832 92.2816C113.137 92.2601 111.742 90.8185 110.712 89.5706C108.824 87.2469 104.596 82.4919 103.544 81.6097C103.459 81.5236 103.459 81.3945 103.523 81.3085C103.609 81.2224 103.738 81.2009 103.823 81.287C104.875 82.1691 109.145 86.9672 111.055 89.2909C112.021 90.4743 113.309 91.8298 114.854 91.8513C115.948 91.8728 117.086 91.2058 118.266 89.8503C121.463 86.128 126.249 81.4591 126.292 81.3945C126.378 81.33 126.507 81.33 126.592 81.4161C126.678 81.5021 126.678 81.6312 126.592 81.7173C126.55 81.7603 121.785 86.4293 118.588 90.13C117.322 91.5931 116.12 92.2816 114.897 92.2816Z" fill="black"/>
<path d="M102.536 97.5746C102.45 97.5746 102.364 97.5316 102.343 97.4455C102.278 97.3379 102.321 97.2088 102.429 97.1658C102.987 96.8861 105.841 94.1966 107.922 92.2171C109.639 90.6035 110.626 89.6783 110.862 89.5277C110.948 89.4631 111.077 89.5061 111.141 89.5922C111.206 89.6998 111.184 89.8289 111.077 89.8934C110.862 90.0225 109.575 91.2489 108.201 92.5399C105.39 95.2079 103.201 97.2734 102.622 97.5531C102.593 97.5674 102.565 97.5746 102.536 97.5746Z" fill="black"/>
<path d="M126.786 98.263C126.721 98.263 126.635 98.2199 126.593 98.1554C126.464 97.9187 124.854 96.1974 123.309 94.5192C121.27 92.3031 119.167 90.0009 118.845 89.506C118.781 89.3984 118.824 89.2693 118.91 89.2048C119.017 89.1402 119.146 89.1617 119.21 89.2693C119.511 89.7427 121.7 92.1309 123.631 94.218C125.605 96.348 126.807 97.682 126.979 97.9402C127.022 98.0478 127 98.1769 126.893 98.2414C126.864 98.2558 126.829 98.263 126.786 98.263Z" fill="black"/>
<mask id="mask1_538_310" style="mask-type:luminance" maskUnits="userSpaceOnUse" x="125" y="0" width="111" height="97">
<path d="M163.274 3.14336C148.28 6.31265 124.809 12.8556 125.891 41.5342C126.97 70.2127 137.968 84.9941 156.329 90.7303C174.693 96.4664 219.75 102.357 229.315 83.2901C238.882 64.2227 235.729 37.0008 230.791 25.6834C225.853 14.3661 213.885 -7.55219 163.274 3.14336Z" fill="white"/>
</mask>
<g mask="url(#mask1_538_310)">
<path d="M203.827 26.529C202.647 21.5158 191.788 15.0611 187.131 16.8469C182.474 18.6542 188.419 20.7198 188.419 20.7198C181.272 19.4288 177.839 20.2894 177.109 22.0968C176.401 23.8826 179.405 24.5926 179.405 24.5926C174.534 24.7432 169.105 28.5515 169.899 31.198C170.671 33.8444 173.89 32.8762 173.89 32.8762C169.319 36.577 170.07 40.3422 174.834 39.8904C169.813 43.6772 169.105 50.6268 171.036 53.1442C172.967 55.6616 174.834 51.8532 174.834 51.8532C172.817 57.4474 175.822 61.1051 178.697 56.4361C178.053 62.8264 183.697 63.687 185.479 60.5242C187.195 66.6347 191.273 65.688 192.002 62.6757C194.213 65.4728 198.569 64.5476 199.428 61.5354C201.874 64.397 204.02 61.7936 203.805 59.5559C206.295 62.5036 210.243 62.8694 211.016 57.5119C214.6 60.1799 216.381 60.0938 215.415 53.7466C221.403 55.9413 224.536 49.2713 217.669 43.5266C222.261 44.753 221.746 40.0195 215.201 37.1794C219.815 37.0718 220.394 33.9305 218.098 31.5853C215.823 29.2616 211.96 24.7432 203.827 26.529Z" fill="black"/>
<path d="M181.101 38.7931C180.393 42.9887 181.637 44.2366 182.882 47.2058C184.127 50.1535 182.388 53.2733 185.693 56.974C188.783 60.4165 193.44 60.2014 193.44 60.2014L194.771 65.5588L206.187 62.6112L203.698 51.8317C203.698 51.8317 206.016 50.5407 205.329 45.9579C204.621 41.3535 204.556 29.9931 193.44 31.6928C182.345 33.4141 182.109 35.4366 181.101 38.7931Z" fill="white"/>
<path fill-rule="evenodd" clip-rule="evenodd" d="M194.771 65.7741C194.728 65.7741 194.692 65.767 194.663 65.7526C194.606 65.7239 194.57 65.6809 194.556 65.6235L193.269 60.4167C192.475 60.4167 188.354 60.2445 185.543 57.1032C183.418 54.7365 183.311 52.5419 183.225 50.6054C183.182 49.4436 183.139 48.3463 182.689 47.2705C182.453 46.711 182.217 46.1947 181.981 45.7213C181.058 43.7634 180.307 42.1927 180.886 38.7502L180.993 38.3844C181.959 35.1355 182.539 33.156 193.419 31.4993C194.17 31.3702 194.9 31.3057 195.586 31.3057C203.763 31.3057 204.75 39.4602 205.329 44.3228C205.393 44.9037 205.458 45.4416 205.544 45.915C206.166 50.003 204.449 51.5521 203.934 51.9179L206.381 62.5683C206.424 62.6758 206.338 62.7834 206.23 62.8264L194.814 65.7741C194.799 65.7741 194.785 65.7741 194.771 65.7741ZM193.44 59.9863C193.548 59.9863 193.633 60.0509 193.655 60.137L194.921 65.3008L205.93 62.4607L203.484 51.8749C203.462 51.7888 203.505 51.6812 203.591 51.6382C203.612 51.6382 205.78 50.3472 205.115 45.9795C205.05 45.5062 204.986 44.9683 204.9 44.3658C204.342 39.6538 203.398 31.736 195.586 31.736C194.921 31.736 194.213 31.8005 193.483 31.9081C182.882 33.5433 182.324 35.4152 181.401 38.5135L181.294 38.8577C180.757 42.1497 181.423 43.5697 182.367 45.5277C182.603 46.0225 182.839 46.5389 183.075 47.1198C183.569 48.2602 183.612 49.379 183.655 50.5839C183.74 52.5419 183.826 54.5643 185.865 56.8235C188.547 59.8357 192.517 59.9863 193.29 59.9863C193.483 59.9863 193.44 59.9863 193.44 59.9863Z" fill="black"/>
<path d="M207.969 42.0204C207.582 39.6752 207.11 37.4591 205.887 35.372C205.136 34.0811 204.471 32.7471 203.204 31.8864C199.664 29.4767 194.899 29.6273 190.865 30.4664C187.667 31.1334 184.105 32.2737 181.616 34.4899C180.8 35.2214 177.453 38.5564 179.62 39.5246C180.886 40.084 182.281 38.8791 183.247 38.083C183.275 38.1978 183.34 38.3269 183.44 38.4703C184.084 39.4385 185.693 39.5461 186.766 39.3309C189.556 38.9006 192.238 37.0718 194.277 35.0278C193.848 35.6732 193.311 36.5339 193.526 37.3945C193.955 38.3627 194.921 38.4703 195.779 38.4703C197.603 38.3627 199.32 36.8566 200.608 35.6732C199.535 37.7172 198.355 39.7613 198.247 42.128C198.14 43.2038 198.247 44.3872 198.676 45.3554C199.213 46.6463 200.393 46.6463 201.466 45.8933C200.93 47.6146 200.608 49.2283 201.359 50.9495C201.81 51.9823 203.226 53.7251 205.2 53.3593C206.767 53.0796 207.046 49.3789 207.625 48.0879C208.698 45.6781 208.398 44.6454 207.969 42.0204Z" fill="black"/>
<path d="M178.955 40.2992C177.989 40.2992 177.066 39.9549 176.809 38.9652C176.637 38.4058 176.744 37.7173 176.873 37.2654C177.131 36.3833 177.925 35.1138 178.654 34.4684C178.74 34.3823 178.89 34.4038 178.955 34.4899C179.041 34.5759 179.041 34.705 178.955 34.7911C178.289 35.3935 177.517 36.5769 177.281 37.373C177.174 37.7818 177.088 38.3843 177.216 38.8576C177.538 40.084 179.255 39.8689 179.577 39.8043C180.607 39.6537 181.358 39.417 181.959 39.0728C182.066 39.0082 182.195 39.0512 182.26 39.1588C182.303 39.2664 182.281 39.3955 182.174 39.4385C181.53 39.8043 180.714 40.0625 179.663 40.2346C179.42 40.2777 179.184 40.2992 178.955 40.2992Z" fill="white"/>
<path d="M190.264 52.929C188.848 52.8429 187.968 52.5202 187.56 51.9177C187.067 51.1862 187.389 50.218 187.689 49.2928C187.746 49.1063 187.803 48.927 187.861 48.7549C188.333 47.1627 187.26 45.2478 186.037 44.129C185.092 43.2468 183.869 43.0962 183.075 43.3114C182.624 43.4405 182.324 43.6987 182.238 43.9999C182.195 44.1075 182.088 44.1935 181.981 44.1505C181.852 44.129 181.787 43.9999 181.83 43.8923C181.959 43.419 182.367 43.0747 182.968 42.9026C183.869 42.6444 185.243 42.8165 186.337 43.8062C187.689 45.0542 188.805 47.0982 188.268 48.8625C188.225 49.049 188.168 49.2354 188.097 49.4219C187.818 50.261 187.539 51.1216 187.925 51.6811C188.247 52.1544 189.041 52.4341 190.286 52.4987C190.414 52.4987 190.5 52.6062 190.479 52.7353C190.479 52.8429 190.393 52.929 190.264 52.929Z" fill="black"/>
<path d="M189.62 43.4191C189.563 43.4191 189.52 43.4048 189.492 43.3761C189.384 43.29 189.384 43.1609 189.449 43.0748C190.2 42.1281 192.367 40.1487 196.316 42.4079C196.423 42.4724 196.466 42.6015 196.402 42.7091C196.337 42.8167 196.209 42.8382 196.101 42.7951C192.582 40.7726 190.629 42.2572 189.792 43.333C189.749 43.3976 189.685 43.4191 189.62 43.4191Z" fill="black"/>
<path d="M194.663 46.7324C195.028 47.4209 195.007 48.1309 194.621 48.3245C194.234 48.5397 193.633 48.1524 193.269 47.4854C192.904 46.8184 192.925 46.1084 193.311 45.8933C193.698 45.6996 194.299 46.0654 194.663 46.7324Z" fill="black"/>
<path d="M193.569 46.2162C193.54 46.2162 193.512 46.209 193.483 46.1947L192.26 45.5492C192.153 45.4846 192.11 45.3555 192.174 45.248C192.238 45.1404 192.367 45.1189 192.453 45.1619L193.676 45.8074C193.784 45.8719 193.826 46.001 193.762 46.1086C193.719 46.1731 193.655 46.2162 193.569 46.2162Z" fill="black"/>
<path d="M186.573 47.4424C186.916 48.1094 186.895 48.8195 186.53 49.0346C186.144 49.2498 185.543 48.8625 185.178 48.1955C184.813 47.507 184.835 46.797 185.221 46.6033C185.607 46.3882 186.208 46.7754 186.573 47.4424Z" fill="black"/>
<path d="M185.479 46.9262C185.45 46.9262 185.414 46.919 185.371 46.9046L184.17 46.2376C184.062 46.1946 184.019 46.0655 184.084 45.9579C184.127 45.8504 184.255 45.8073 184.363 45.8719L185.586 46.5174C185.693 46.5604 185.736 46.711 185.672 46.7971C185.629 46.8831 185.564 46.9262 185.479 46.9262Z" fill="black"/>
<path fill-rule="evenodd" clip-rule="evenodd" d="M191.723 56.5866C190.693 56.5866 189.685 55.6399 188.891 53.8972C188.848 53.8326 188.848 53.7465 188.912 53.682C188.955 53.6174 189.02 53.5959 189.105 53.5959C189.32 53.6175 189.556 53.639 189.771 53.639C190.608 53.639 191.573 53.3162 194.148 51.638C194.213 51.595 194.299 51.595 194.363 51.638C194.449 51.681 194.492 51.7671 194.47 51.8531C194.213 54.7793 193.14 56.5866 191.723 56.5866ZM189.427 54.0693C190.114 55.4033 190.951 56.1563 191.723 56.1563C192.818 56.1563 193.698 54.6502 193.998 52.2619C191.316 53.9617 190.414 54.1338 189.427 54.0693Z" fill="black"/>
<path d="M191.123 56.4147C191.094 56.4147 191.072 56.4147 191.058 56.4147C190.951 56.3932 190.886 56.2641 190.908 56.1565C191.294 54.7579 192.818 53.7252 193.848 53.7897C193.955 53.7897 194.041 53.8973 194.041 54.0049C194.041 54.134 193.934 54.22 193.805 54.22C192.947 54.1555 191.638 55.1022 191.316 56.2641C191.294 56.3501 191.208 56.4147 191.123 56.4147Z" fill="black"/>
<path d="M165.306 92.9917C167.345 91.0122 177.088 78.1027 180.865 73.4983C184.642 68.8724 189.019 68.7648 194.964 68.7002C193.505 62.8264 193.891 62.6973 194.17 62.7619C194.47 62.8049 200.028 64.0313 205.544 60.18C207.024 59.7712 206.96 65.6665 208.355 66.4196C209.75 67.1941 219.063 65.2577 223.677 69.8621C228.27 74.488 231.467 85.3966 231.467 85.3966C228.978 89.4416 211.96 102.093 190.586 96.2621C190.178 94.4548 187.281 91.6577 186.401 88.0861C182.796 92.8196 180.221 96.3267 180.221 96.3267C180.221 96.3267 168.761 95.5736 165.306 92.9917Z" fill="#F2AC30"/>
<path d="M199.406 70.4645C197.067 70.4645 195.436 69.5178 194.814 68.8508C194.728 68.7647 194.728 68.6356 194.814 68.5495C194.899 68.4635 195.028 68.4635 195.114 68.5495C196.316 69.819 201.252 72.0781 207.926 66.1398C208.012 66.0752 208.14 66.0752 208.226 66.1613C208.312 66.2473 208.291 66.398 208.205 66.4625C204.771 69.5393 201.745 70.4645 199.406 70.4645Z" fill="black"/>
<path d="M198.183 70.4214C198.097 70.4214 198.011 70.3568 197.968 70.2708C197.904 70.0126 196.08 63.9881 195.887 63.1275C195.844 63.0199 195.929 62.8908 196.037 62.8693C196.166 62.8478 196.273 62.9123 196.294 63.0414C196.487 63.859 198.376 70.0771 198.397 70.1417C198.419 70.2493 198.354 70.3784 198.247 70.3999C198.219 70.4142 198.197 70.4214 198.183 70.4214Z" fill="black"/>
<path d="M200.715 70.3784C200.608 70.3784 200.522 70.3138 200.5 70.2278L198.247 63.02C198.204 62.9124 198.269 62.7833 198.397 62.7618C198.505 62.7187 198.633 62.7833 198.655 62.8909L200.908 70.0987C200.951 70.2063 200.887 70.3354 200.779 70.3784C200.751 70.3784 200.729 70.3784 200.715 70.3784Z" fill="black"/>
<path d="M203.355 69.6038C203.247 69.6038 203.162 69.5392 203.14 69.4532L200.887 62.5681C200.844 62.439 200.908 62.3314 201.037 62.2884C201.144 62.2453 201.252 62.3099 201.295 62.4175L203.548 69.3241C203.591 69.4317 203.526 69.5608 203.419 69.5823C203.39 69.5966 203.369 69.6038 203.355 69.6038Z" fill="black"/>
<path d="M205.758 68.3559C205.651 68.3559 205.586 68.2913 205.544 68.2053L203.655 61.729C203.612 61.6214 203.677 61.5138 203.784 61.4708C203.913 61.4278 204.02 61.4923 204.063 61.6214L205.951 68.0762C205.994 68.1838 205.93 68.3129 205.822 68.3559C205.794 68.3559 205.772 68.3559 205.758 68.3559Z" fill="black"/>
<path d="M193.505 60.4596C193.49 60.4596 193.469 60.4596 193.44 60.4596C193.311 60.4596 193.226 60.3521 193.226 60.223C193.226 60.1154 193.311 60.0293 193.44 60.0293C194.964 60.0724 199.063 58.7384 201.659 55.511C201.745 55.4249 201.874 55.4034 201.96 55.4679C202.067 55.554 202.067 55.6831 202.003 55.7692C199.342 59.0826 195.136 60.4596 193.505 60.4596Z" fill="black"/>
<path d="M187.217 90.4742C187.131 90.4742 187.045 90.4097 187.024 90.3451C185.586 87.0962 185.479 83.8689 185.479 82.9437C185.479 82.8361 185.586 82.7285 185.693 82.7285C185.822 82.7285 185.908 82.8361 185.908 82.9437C185.908 83.5892 185.994 86.9241 187.41 90.173C187.453 90.2806 187.41 90.3882 187.303 90.4527C187.274 90.4671 187.245 90.4742 187.217 90.4742Z" fill="black"/>
<path d="M218.484 94.5624C218.398 94.5624 218.312 94.4978 218.291 94.3902C218.269 94.3257 216.359 87.7633 215.544 85.289C215.501 85.1814 215.565 85.0523 215.694 85.0308C215.802 84.9878 215.909 85.0523 215.952 85.1599C216.767 87.6557 218.677 94.2181 218.699 94.2826C218.72 94.3902 218.656 94.5193 218.548 94.5408C218.534 94.5552 218.513 94.5624 218.484 94.5624Z" fill="black"/>
<path d="M204.428 53.7466C203.762 53.7466 202.99 53.5099 202.153 53.0796C202.046 53.0365 202.024 52.9074 202.067 52.7999C202.131 52.6923 202.26 52.6492 202.368 52.6923C203.333 53.2087 204.213 53.4023 204.9 53.2517C206.488 52.8859 207.153 50.0889 207.153 48.6688C207.153 48.5827 207.218 48.4967 207.303 48.4536C207.389 48.4321 207.475 48.4537 207.539 48.5397C208.269 49.4864 209.127 49.9382 210.243 49.9382C211.338 49.8522 212.389 48.6473 212.518 47.7006C212.54 47.593 212.647 47.5069 212.754 47.5285C212.883 47.5285 212.947 47.6576 212.947 47.7651C212.776 48.884 211.574 50.2825 210.265 50.3686C209.192 50.3686 208.291 49.9813 207.561 49.2282C207.411 50.971 206.595 53.3162 204.986 53.682C204.814 53.725 204.628 53.7466 204.428 53.7466Z" fill="white"/>
</g>
<path fill-rule="evenodd" clip-rule="evenodd" d="M194.728 96.5417C194.714 96.5417 194.706 96.5417 194.706 96.5417C179.556 96.5417 164.534 93.508 156.272 90.9261C136.7 84.8156 126.7 68.6786 125.67 41.5471C125.198 28.9388 129.49 19.1921 138.417 12.6082C145.821 7.14318 155.113 4.64734 163.225 2.92607C172.238 1.03267 180.5 0.0644531 187.839 0.0644531C201.059 0.0644531 211.638 3.20577 219.3 9.35932C225.587 14.4371 228.849 20.6982 230.995 25.6038C233.699 31.8219 235.523 41.7838 235.716 51.5735C235.867 60.1153 234.944 72.573 229.514 83.3955C224.064 94.261 207.582 96.5417 194.728 96.5417ZM187.839 0.494771C180.543 0.494771 172.281 1.46299 163.31 3.35638C144.361 7.35834 125.112 15.0395 126.099 41.5256C127.107 68.442 137.022 84.4713 156.4 90.5173C165.285 93.2928 180.586 96.1114 194.706 96.1114C194.706 96.1114 194.714 96.1114 194.728 96.1114C207.454 96.1114 223.763 93.8738 229.128 83.2019C234.515 72.4439 235.437 60.0723 235.287 51.5735C235.094 41.8483 233.291 31.951 230.587 25.7759C227.583 18.8478 219.579 0.494771 187.839 0.494771Z" fill="black"/>
<path d="M144.876 22.355H128.052C125.112 22.355 122.88 24.8723 123.073 27.9276L123.524 35.6733C123.674 38.4919 126.034 40.708 128.781 40.665L140.949 40.4929C141.593 42.3863 142.044 44.2366 143.267 44.1291C144.147 44.043 144.511 42.2141 144.769 40.4283C147.323 40.2562 149.426 38.0831 149.512 35.3936L149.791 27.7985C149.898 24.8293 147.709 22.355 144.876 22.355Z" fill="white"/>
<path fill-rule="evenodd" clip-rule="evenodd" d="M143.181 44.3658C142.001 44.3658 141.507 42.8597 140.928 41.1169C140.885 40.9878 140.842 40.8515 140.799 40.7081L128.696 40.8802C125.841 40.8802 123.481 38.5995 123.309 35.6949L122.858 27.9492C122.751 26.3785 123.288 24.8509 124.318 23.7536C125.305 22.7208 126.614 22.1399 128.052 22.1399H144.876C146.228 22.1399 147.516 22.6993 148.46 23.689C149.49 24.7648 150.07 26.2709 150.005 27.8201L149.726 35.3937C149.641 38.1047 147.559 40.3639 144.962 40.622C144.683 42.5154 144.276 44.2582 143.288 44.3443C143.26 44.3586 143.224 44.3658 143.181 44.3658ZM140.949 40.2778C141.035 40.2778 141.121 40.3423 141.164 40.4284C141.221 40.6149 141.278 40.8013 141.336 40.9878C141.872 42.6015 142.344 44 143.245 43.914C144.061 43.8494 144.426 41.3321 144.555 40.3854C144.576 40.2993 144.64 40.2132 144.748 40.2132C147.216 40.0626 149.211 37.9326 149.297 35.3937L149.576 27.7986C149.619 26.357 149.104 24.98 148.16 23.9903C147.28 23.0651 146.121 22.5702 144.876 22.5702H128.052C126.743 22.5702 125.541 23.0866 124.64 24.0548C123.695 25.0445 123.202 26.4646 123.288 27.9062L123.738 35.6734C123.889 38.2983 126.12 40.4499 128.696 40.4499H128.781L140.949 40.2778Z" fill="black"/>
<path d="M131.292 31.7574C131.292 32.6826 130.541 33.4356 129.64 33.4356C128.717 33.4356 127.987 32.6826 127.987 31.7574C127.987 30.8107 128.717 30.0576 129.64 30.0576C130.541 30.0576 131.292 30.8107 131.292 31.7574Z" fill="#10AA99"/>
<path d="M137.816 31.7574C137.816 32.6826 137.065 33.4356 136.164 33.4356C135.241 33.4356 134.511 32.6826 134.511 31.7574C134.511 30.8107 135.241 30.0576 136.164 30.0576C137.065 30.0576 137.816 30.8107 137.816 31.7574Z" fill="#10AA99"/>
<path d="M144.318 31.7574C144.318 32.6826 143.589 33.4356 142.687 33.4356C141.765 33.4356 141.035 32.6826 141.035 31.7574C141.035 30.8107 141.765 30.0576 142.687 30.0576C143.589 30.0576 144.318 30.8107 144.318 31.7574Z" fill="#10AA99"/>
<path d="M198.977 168.082H182.281C182.152 168.082 182.066 167.996 182.066 167.867C182.066 167.759 182.152 167.652 182.281 167.652H198.977C199.106 167.652 199.191 167.759 199.191 167.867C199.191 167.996 199.106 168.082 198.977 168.082Z" fill="black"/>
<path d="M149.619 107.128C144.662 104.739 143.739 99.3604 150.949 97.3164C145.885 91.0768 151.014 87.4406 154.447 86.7521C157.881 86.0421 164.705 87.8064 171.272 93.4651C177.86 99.1238 180.714 99.425 182.689 103.857C184.663 108.29 183.74 111.732 181.766 116.229C179.77 120.726 179.556 122.124 183.397 125.76C187.238 129.375 190.371 132.99 187.71 139.832C185.028 146.652 152.988 144.157 151.464 139.466C149.962 134.797 153.568 117.692 153.568 117.692L149.619 107.128Z" fill="black"/>
<path d="M145.949 135.098C145.177 131.763 146.057 124.125 152.688 120.317C157.538 117.541 160.091 121.436 160.091 121.436L160.843 134.216C160.843 134.216 147.58 135.163 145.949 135.098Z" fill="black"/>
<path d="M108.673 115.884C108.094 115.067 107.214 113.948 106.399 114.529C105.583 115.11 106.892 119.865 110.54 119.262C109.596 117.864 108.673 115.884 108.673 115.884Z" fill="white"/>
<path fill-rule="evenodd" clip-rule="evenodd" d="M109.918 119.542C107.879 119.542 106.613 117.864 106.162 116.422C105.926 115.691 105.798 114.701 106.27 114.357C106.456 114.228 106.656 114.163 106.871 114.163C107.6 114.163 108.244 114.916 108.845 115.756C108.866 115.82 109.789 117.778 110.712 119.155C110.755 119.22 110.755 119.284 110.733 119.349C110.69 119.435 110.648 119.478 110.562 119.478C110.347 119.521 110.133 119.542 109.918 119.542ZM106.871 114.594C106.756 114.594 106.642 114.63 106.527 114.701C106.356 114.83 106.291 115.433 106.57 116.293C106.999 117.649 108.115 119.112 109.918 119.112C110.004 119.112 110.082 119.105 110.154 119.09C109.296 117.735 108.48 115.992 108.48 115.971C108.18 115.583 107.471 114.594 106.871 114.594Z" fill="black"/>
<path d="M118.974 116.401C117 115.777 115.712 114.185 116.356 112.915C117 111.624 119.103 113.324 120.541 114.486C122 115.648 123.395 115.885 123.395 115.885C123.395 115.885 121.249 117.003 118.974 116.401Z" fill="white"/>
<path fill-rule="evenodd" clip-rule="evenodd" d="M120.369 116.788C119.868 116.788 119.389 116.731 118.931 116.616C117.601 116.186 116.528 115.347 116.142 114.4C115.905 113.841 115.927 113.303 116.163 112.808C116.356 112.442 116.678 112.227 117.086 112.227C118.094 112.227 119.511 113.367 120.648 114.292C122.064 115.433 123.416 115.669 123.438 115.669C123.524 115.691 123.61 115.755 123.61 115.841C123.631 115.949 123.588 116.035 123.502 116.078C123.438 116.1 122.086 116.788 120.369 116.788ZM117.086 112.657C116.828 112.657 116.657 112.765 116.549 113.001C116.363 113.389 116.356 113.797 116.528 114.228C116.893 115.067 117.837 115.82 119.039 116.207C119.446 116.315 119.897 116.358 120.369 116.358C121.335 116.358 122.193 116.121 122.73 115.928C122.172 115.734 121.313 115.368 120.412 114.658C119.361 113.797 117.944 112.657 117.086 112.657Z" fill="black"/>
<path d="M121.056 134.345C120.905 130.903 120.519 124.061 119.961 121.888C119.425 119.693 116.013 120.317 115.777 120.252C115.54 120.166 111.291 121.78 109.188 117.52C107.085 113.26 108.781 111.689 109.939 112.098C110.347 110.678 111.527 111.087 112.171 111.797C112.751 110.57 114.425 111.861 114.832 113.432C115.24 115.002 115.648 116.401 118.91 115.992C122.172 115.583 126.206 114.658 127.773 119.392C129.339 124.125 130.627 131.484 130.627 131.484C130.627 131.484 130.004 136.153 121.056 134.345Z" fill="white"/>
<path fill-rule="evenodd" clip-rule="evenodd" d="M124.79 134.969C123.674 134.969 122.386 134.819 121.013 134.539C120.906 134.517 120.841 134.453 120.841 134.345C120.734 132.022 120.348 124.297 119.768 121.931C119.511 120.941 118.524 120.425 116.85 120.425C116.571 120.425 116.335 120.446 116.142 120.446C115.927 120.468 115.82 120.468 115.734 120.468C115.691 120.468 115.612 120.482 115.498 120.511C115.133 120.575 114.532 120.704 113.781 120.704C111.656 120.704 109.983 119.628 108.995 117.606C107.536 114.658 107.965 113.174 108.352 112.55C108.695 112.012 109.253 111.732 109.811 111.84C110.111 111.065 110.626 110.936 110.927 110.936C111.313 110.936 111.742 111.13 112.129 111.452C112.3 111.216 112.558 111.087 112.858 111.087C113.717 111.087 114.725 112.162 115.047 113.367C115.39 114.701 115.691 115.863 117.858 115.863C118.173 115.863 118.516 115.842 118.888 115.799C119.132 115.756 119.375 115.72 119.618 115.691C120.584 115.562 121.571 115.433 122.537 115.433C124.318 115.433 126.807 115.842 127.966 119.327C129.533 124.018 130.82 131.355 130.842 131.441C130.842 131.455 130.842 131.477 130.842 131.505C130.842 131.548 130.305 134.969 124.79 134.969ZM121.27 134.152C122.558 134.41 123.738 134.539 124.79 134.539C129.661 134.539 130.348 131.785 130.412 131.484C130.305 130.903 129.06 123.953 127.558 119.456C126.507 116.272 124.318 115.863 122.537 115.863C121.592 115.863 120.627 115.992 119.682 116.121C119.425 116.15 119.182 116.179 118.953 116.207C118.552 116.265 118.187 116.293 117.858 116.293C115.369 116.293 114.983 114.809 114.639 113.496C114.339 112.378 113.438 111.517 112.858 111.517C112.644 111.517 112.479 111.639 112.365 111.883C112.322 111.947 112.257 111.99 112.193 112.012C112.129 112.012 112.043 111.99 112 111.947C111.678 111.582 111.27 111.366 110.927 111.366C110.569 111.366 110.312 111.625 110.154 112.141C110.133 112.205 110.09 112.249 110.047 112.27C110.004 112.313 109.94 112.313 109.875 112.292C109.467 112.141 108.995 112.335 108.716 112.786C108.437 113.217 107.965 114.551 109.382 117.434C110.304 119.306 111.785 120.274 113.781 120.274C114.489 120.274 115.069 120.145 115.412 120.08C115.584 120.037 115.669 120.016 115.755 120.016C115.777 120.016 115.82 120.037 115.841 120.037C115.913 120.037 116.006 120.03 116.12 120.016C116.313 120.016 116.549 119.994 116.85 119.994C118.76 119.994 119.876 120.618 120.176 121.823C120.755 124.168 121.142 131.656 121.27 134.152Z" fill="black"/>
<path d="M110.841 119.8C110.798 119.8 110.755 119.786 110.712 119.757C109.403 118.746 108.523 117.219 108.115 115.218C108.094 115.11 108.18 114.981 108.287 114.959C108.394 114.938 108.523 115.024 108.545 115.131C108.931 117.025 109.746 118.466 110.991 119.413C111.077 119.499 111.098 119.628 111.012 119.714C110.97 119.779 110.905 119.8 110.841 119.8Z" fill="black"/>
<path d="M116.356 119.026C115.154 118.961 114.146 118.445 113.394 117.498C111.935 115.648 111.785 112.679 111.957 111.754C111.978 111.646 112.085 111.56 112.193 111.581C112.321 111.603 112.386 111.711 112.364 111.84C112.214 112.679 112.386 115.519 113.738 117.219C114.403 118.079 115.304 118.553 116.356 118.596C116.485 118.596 116.571 118.703 116.571 118.811C116.571 118.918 116.463 119.026 116.356 119.026Z" fill="black"/>
<path d="M114.081 120.597C114.081 120.597 114.074 120.597 114.06 120.597C112.944 120.511 112.021 119.973 111.292 119.048C109.575 116.81 109.575 112.937 109.746 112.055C109.768 111.926 109.875 111.861 109.982 111.883C110.111 111.904 110.176 112.012 110.154 112.119C110.004 112.98 110.004 116.659 111.635 118.768C112.279 119.607 113.116 120.08 114.103 120.166C114.232 120.166 114.317 120.274 114.296 120.403C114.296 120.511 114.189 120.597 114.081 120.597Z" fill="black"/>
<path d="M154.448 138.197C156.357 139.057 161.959 141.058 172.088 138.476C171.744 145.49 171.036 160.272 171.036 160.272C171.036 160.272 162.602 165.048 156.958 163.069C155.37 160.379 154.448 138.197 154.448 138.197Z" fill="black"/>
<path d="M156.164 132.645C157.86 132.409 159.684 131.763 159.512 128.966C159.34 126.169 158.868 122.49 158.868 122.49C154.512 122.425 150.199 120.145 148.224 115.648C146.228 111.151 148.847 108.827 150.306 104.158C151.765 99.468 154.512 95.6166 160.628 96.0254C166.744 96.4342 169.985 99.3604 169.985 99.3604C168.955 104.847 167.903 112.614 170.178 113.088C172.431 113.539 173.032 109.516 173.032 109.516C176.466 107.816 180.049 109.882 178.676 112.915C176.981 116.595 172.968 114.723 172.968 114.723C172.152 116.81 168.719 119.155 168.719 119.155C169.234 123.48 169.77 130.623 173.011 131.032C171.68 137.874 170.993 140.348 170.993 140.348C170.993 140.348 159.276 143.21 155.027 139.014C155.199 137.551 156.164 132.645 156.164 132.645Z" fill="white"/>
<path fill-rule="evenodd" clip-rule="evenodd" d="M162.989 141.51C159.19 141.51 156.465 140.714 154.877 139.165C154.834 139.122 154.812 139.057 154.812 138.993C154.984 137.53 155.928 132.796 155.971 132.602C155.993 132.516 156.057 132.452 156.143 132.43C157.795 132.194 159.469 131.613 159.297 128.988C159.147 126.578 158.782 123.48 158.675 122.684C153.932 122.555 149.855 119.908 148.009 115.734C146.55 112.421 147.516 110.29 148.718 107.579C149.211 106.504 149.705 105.406 150.113 104.094C151.958 98.1555 155.392 95.466 160.628 95.8103C166.744 96.2191 170.006 99.0807 170.135 99.2098C170.199 99.2528 170.221 99.3174 170.199 99.4034C168.633 107.644 168.633 112.55 170.221 112.872C170.321 112.887 170.421 112.894 170.521 112.894C172.302 112.894 172.796 109.516 172.817 109.494C172.817 109.408 172.86 109.365 172.925 109.322C173.761 108.913 174.663 108.698 175.543 108.698C176.959 108.698 178.182 109.258 178.783 110.226C179.298 111.022 179.32 112.012 178.869 113.001C177.946 114.981 176.38 115.411 175.221 115.411C174.277 115.411 173.44 115.132 173.075 115.002C172.216 116.896 169.534 118.854 168.933 119.263C168.976 119.592 169.019 119.937 169.062 120.295C169.555 124.577 170.221 130.472 173.053 130.817C173.096 130.817 173.161 130.86 173.204 130.903C173.225 130.946 173.246 131.01 173.225 131.075C171.916 137.831 171.208 140.391 171.186 140.413C171.165 140.477 171.122 140.542 171.036 140.563C170.993 140.563 167.066 141.51 162.989 141.51ZM155.263 138.928C156.765 140.37 159.362 141.08 162.989 141.08C166.615 141.08 170.113 140.327 170.821 140.176C170.972 139.595 171.637 136.992 172.774 131.204C169.813 130.558 169.126 124.663 168.633 120.338C168.59 119.937 168.547 119.549 168.504 119.177C168.482 119.09 168.525 119.026 168.59 118.983C168.633 118.961 171.98 116.659 172.774 114.637C172.796 114.594 172.839 114.529 172.882 114.508C172.946 114.486 173.01 114.508 173.053 114.529C173.075 114.529 174.04 114.981 175.221 114.981C176.723 114.981 177.817 114.249 178.483 112.808C178.869 111.947 178.869 111.13 178.418 110.463C177.903 109.623 176.809 109.129 175.543 109.129C174.77 109.129 173.976 109.322 173.225 109.667C173.096 110.312 172.474 113.324 170.521 113.324C170.392 113.324 170.263 113.317 170.135 113.303C168.203 112.894 168.096 108.246 169.77 99.4465C169.19 98.9946 166.014 96.6064 160.607 96.2406C155.52 95.9178 152.323 98.4352 150.52 104.201C150.091 105.557 149.576 106.719 149.125 107.752C147.945 110.377 147.022 112.442 148.417 115.562C150.198 119.628 154.211 122.21 158.868 122.275C158.976 122.275 159.061 122.339 159.083 122.447C159.083 122.49 159.555 126.169 159.727 128.945C159.92 131.892 157.945 132.602 156.357 132.839C156.186 133.657 155.435 137.53 155.263 138.928Z" fill="black"/>
<path d="M154.791 113.066C154.762 113.066 154.726 113.059 154.683 113.045C153.46 112.335 152.816 111.646 152.709 110.936C152.602 110.054 153.31 109.322 154.018 108.634C154.147 108.49 154.276 108.354 154.405 108.225C155.542 107.02 155.413 104.804 154.834 103.276C154.576 102.609 154.147 102.222 153.546 102.114C152.774 101.964 151.937 102.351 151.529 102.803C151.464 102.889 151.314 102.889 151.228 102.803C151.143 102.738 151.143 102.588 151.228 102.502C151.701 101.964 152.688 101.512 153.632 101.684C154.147 101.792 154.834 102.114 155.22 103.126C155.885 104.825 155.993 107.171 154.726 108.526C154.583 108.655 154.447 108.792 154.319 108.935C153.696 109.559 153.053 110.204 153.138 110.871C153.224 111.431 153.804 112.033 154.898 112.657C155.005 112.722 155.048 112.851 154.984 112.958C154.941 113.023 154.877 113.066 154.791 113.066Z" fill="black"/>
<path d="M165.306 105.794C165.242 105.794 165.178 105.751 165.135 105.686C162.881 102.308 160.478 102.76 159.233 103.341C159.126 103.405 158.997 103.362 158.954 103.255C158.89 103.147 158.954 103.018 159.061 102.954C160.156 102.437 162.967 101.663 165.499 105.449C165.564 105.557 165.542 105.686 165.435 105.751C165.392 105.779 165.349 105.794 165.306 105.794Z" fill="black"/>
<path d="M161.851 108.849C161.637 109.58 161.122 110.054 160.692 109.925C160.285 109.796 160.134 109.107 160.349 108.376C160.585 107.644 161.1 107.171 161.529 107.3C161.937 107.429 162.087 108.117 161.851 108.849Z" fill="black"/>
<path d="M161.637 107.773C161.529 107.773 161.443 107.709 161.422 107.623L161.036 106.289C160.993 106.181 161.057 106.052 161.186 106.03C161.293 105.987 161.422 106.052 161.443 106.159L161.83 107.493C161.873 107.601 161.808 107.73 161.68 107.752C161.665 107.766 161.651 107.773 161.637 107.773Z" fill="black"/>
<path d="M153.374 107.257C153.138 107.988 152.623 108.462 152.216 108.332C151.808 108.203 151.658 107.515 151.872 106.783C152.108 106.052 152.623 105.557 153.031 105.686C153.439 105.837 153.611 106.525 153.374 107.257Z" fill="black"/>
<path d="M153.139 106.181C153.053 106.181 152.967 106.116 152.945 106.009L152.559 104.696C152.516 104.589 152.581 104.46 152.688 104.438C152.817 104.395 152.924 104.46 152.967 104.567L153.353 105.901C153.375 106.009 153.31 106.138 153.203 106.159C153.189 106.174 153.167 106.181 153.139 106.181Z" fill="black"/>
<path fill-rule="evenodd" clip-rule="evenodd" d="M154.705 117.391C154.247 117.391 153.875 117.233 153.589 116.917C153.052 116.38 152.838 115.368 152.881 113.905C152.902 113.819 152.945 113.755 153.031 113.712C153.095 113.69 153.181 113.712 153.246 113.755C153.568 114.034 154.469 114.379 155.993 114.379C156.937 114.379 157.988 114.228 159.04 113.991C159.126 113.97 159.212 113.991 159.276 114.077C159.319 114.163 159.297 114.271 159.254 114.336C157.538 116.272 155.885 117.391 154.705 117.391ZM153.31 114.314C153.31 115.433 153.503 116.207 153.889 116.616C154.705 117.477 156.529 116.595 158.46 114.551C156.4 114.959 154.297 114.83 153.31 114.314Z" fill="black"/>
<path d="M153.804 117.004C153.761 117.004 153.725 116.989 153.696 116.96C153.589 116.917 153.568 116.767 153.611 116.681C154.126 115.799 156.164 115.239 157.388 115.67C157.516 115.691 157.559 115.82 157.538 115.928C157.495 116.035 157.366 116.1 157.259 116.057C156.143 115.691 154.362 116.229 153.997 116.896C153.954 116.961 153.89 117.004 153.804 117.004Z" fill="black"/>
<path d="M158.782 122.727C158.654 122.727 158.546 122.619 158.546 122.512C158.546 122.383 158.632 122.296 158.761 122.296C158.761 122.296 158.768 122.296 158.782 122.296C160.95 122.296 164.469 121.027 166.808 119.779C166.916 119.736 167.045 119.758 167.087 119.865C167.152 119.973 167.109 120.102 167.002 120.166C164.62 121.436 161.014 122.727 158.782 122.727Z" fill="black"/>
<path d="M120.906 133.334C121.893 133.7 126.721 133.7 130.627 131.484C131.271 135.034 133.653 145.663 133.653 145.663C136.979 142.048 141.571 137.788 143.675 135.98C145.778 134.152 148.975 132.409 152.108 132.516C155.263 132.646 156.894 132.473 156.894 132.473C156.894 132.473 154.383 136.906 155.671 149.234C156.958 161.541 157.366 163.177 157.366 163.177L153.053 162.768C153.053 162.768 153.911 160.035 151.293 156.872C148.675 153.731 147.924 151.73 147.58 149.406C144.769 152.268 137.322 160.207 131.099 160.272C124.854 160.315 122.644 154.721 121.764 147.707C120.906 140.692 120.906 133.334 120.906 133.334Z" fill="#10AA99"/>
<path d="M168.89 160.186C167.152 160.702 159.619 162.94 156.186 162.725C152.752 162.488 149.211 160.788 146.4 161.498C143.61 162.187 138.825 165.715 139.147 167.114C139.426 168.211 140.692 167.63 140.692 167.63C141.164 168.62 142.108 168.082 142.108 168.082C142.559 169.072 144.726 168.491 145.992 167.394C147.28 166.275 148.846 165.694 150.842 166.404C152.817 167.092 155.907 168.082 159.512 168.254C163.117 168.426 171.616 168.039 171.616 168.039C171.616 168.039 172.903 162.983 168.89 160.186Z" fill="white"/>
<path fill-rule="evenodd" clip-rule="evenodd" d="M143.138 168.814C142.516 168.814 142.194 168.599 142.022 168.362C141.893 168.405 141.722 168.448 141.55 168.448C141.271 168.448 140.885 168.34 140.606 167.889C140.456 167.932 140.219 167.996 139.983 167.996C139.447 167.996 139.082 167.695 138.953 167.179C138.546 165.5 143.675 161.95 146.357 161.283C146.829 161.154 147.323 161.111 147.881 161.111C149.233 161.111 150.671 161.434 152.194 161.778C153.503 162.101 154.877 162.402 156.207 162.51C159.233 162.703 165.499 160.982 168.826 159.971C168.89 159.971 168.954 159.971 169.019 160.014C173.096 162.854 171.852 168.039 171.83 168.082C171.809 168.19 171.723 168.254 171.637 168.254C171.573 168.254 165.864 168.513 161.873 168.513C160.907 168.513 160.113 168.513 159.491 168.469C155.993 168.297 152.988 167.372 150.756 166.598C149.082 165.995 147.58 166.318 146.142 167.544C145.284 168.297 144.039 168.814 143.138 168.814ZM142.108 167.867C142.122 167.867 142.144 167.874 142.172 167.889C142.215 167.91 142.258 167.932 142.301 167.996C142.451 168.319 142.838 168.383 143.138 168.383C143.954 168.383 145.069 167.91 145.863 167.222C147.409 165.888 149.082 165.543 150.907 166.189C153.095 166.963 156.057 167.889 159.512 168.039C160.134 168.082 160.907 168.082 161.873 168.082C165.478 168.082 170.478 167.867 171.444 167.824C171.615 166.985 172.216 162.854 168.847 160.423C165.456 161.434 159.233 163.134 156.186 162.94C154.812 162.832 153.439 162.51 152.108 162.208C150.606 161.864 149.19 161.541 147.881 161.541C147.366 161.541 146.894 161.584 146.464 161.692C143.653 162.402 139.082 165.866 139.361 167.071C139.447 167.415 139.64 167.566 139.983 167.566C140.305 167.566 140.606 167.415 140.606 167.415C140.713 167.372 140.842 167.415 140.885 167.523C141.056 167.846 141.271 168.018 141.55 168.018C141.786 168.018 142.001 167.91 142.001 167.889C142.029 167.874 142.065 167.867 142.108 167.867Z" fill="black"/>
<path fill-rule="evenodd" clip-rule="evenodd" d="M190.436 166.92C187.646 167.63 179.083 168.9 170.993 168.254C171.444 164.575 170.392 161.843 168.547 160.315C168.547 160.315 169.126 159.863 169.942 159.863C168.075 148.008 171.615 133.872 172.731 130.946C172.731 130.946 175.757 131.075 179.148 131.29C183.805 131.763 186.294 134.926 188.397 138.304C190.5 141.704 192.711 149.17 195.264 156.055C197.84 162.94 193.226 166.21 190.436 166.92ZM180.586 157.862L179.255 153.322L178.847 158.228L180.586 157.862Z" fill="#10AA99"/>
<path d="M117.772 116.25C117.665 116.25 117.558 116.164 117.558 116.057C117.558 115.928 117.644 115.841 117.751 115.82C118.159 115.798 118.631 115.755 119.167 115.712C120.927 115.54 123.116 115.325 124.425 115.669C124.532 115.691 124.618 115.82 124.575 115.928C124.554 116.035 124.425 116.121 124.318 116.078C123.073 115.755 120.927 115.971 119.21 116.121C118.674 116.186 118.18 116.229 117.794 116.25C117.78 116.25 117.772 116.25 117.772 116.25Z" fill="black"/>
<path d="M147.752 150.611C147.645 150.611 147.559 150.547 147.537 150.439C147.151 148.481 147.58 145.985 148.181 144.372C148.224 144.242 148.353 144.199 148.46 144.242C148.567 144.285 148.632 144.393 148.589 144.522C148.16 145.684 147.537 148.223 147.967 150.353C147.988 150.461 147.902 150.59 147.795 150.611C147.781 150.611 147.766 150.611 147.752 150.611Z" fill="black"/>
<path d="M168.675 160.379C168.568 160.379 168.482 160.315 168.461 160.229C168.439 160.1 168.504 159.992 168.611 159.949C170.5 159.454 182.303 157.131 186.466 156.786C186.573 156.765 186.68 156.851 186.68 156.98C186.702 157.087 186.616 157.195 186.487 157.217C182.346 157.561 170.607 159.885 168.718 160.379C168.704 160.379 168.69 160.379 168.675 160.379Z" fill="black"/>
<path d="M179.556 154.29C179.448 154.29 179.363 154.226 179.341 154.14C178.912 152.827 177.882 148.653 177.388 146.652L177.238 146.071C177.217 145.942 177.281 145.835 177.388 145.813C177.517 145.77 177.624 145.856 177.667 145.964L177.796 146.545C178.29 148.546 179.341 152.698 179.749 154.011C179.792 154.118 179.727 154.247 179.62 154.269C179.591 154.283 179.57 154.29 179.556 154.29Z" fill="black"/>
<path d="M142.108 168.297C142.094 168.297 142.087 168.297 142.087 168.297C141.958 168.297 141.872 168.19 141.893 168.061C141.958 167.286 145.091 164.661 147.924 163.843C148.031 163.822 148.16 163.887 148.181 163.994C148.224 164.123 148.16 164.231 148.031 164.274C145.198 165.07 142.366 167.609 142.323 168.104C142.301 168.211 142.215 168.297 142.108 168.297Z" fill="black"/>
<path d="M140.692 167.846C140.584 167.846 140.477 167.738 140.477 167.63C140.477 166.49 142.838 164.123 146.529 162.983C146.636 162.94 146.743 163.004 146.786 163.112C146.829 163.241 146.765 163.349 146.636 163.392C142.859 164.575 140.906 166.899 140.906 167.63C140.906 167.738 140.82 167.846 140.692 167.846Z" fill="black"/>
<path d="M155.907 167.458H137.516L130.112 145.77C129.468 143.898 127.301 142.349 125.305 142.349H93.9089C91.9131 142.349 90.7972 143.898 91.4625 145.77L99.0808 168.104C99.9177 170.277 100.004 172.063 102.171 172.063H155.907C157.173 172.063 158.203 171.03 158.203 169.76C158.203 168.491 157.173 167.458 155.907 167.458Z" fill="#F2AC30"/>
<path d="M135.885 168.061H99.3596C99.2309 168.061 99.145 167.975 99.145 167.846C99.145 167.738 99.2309 167.63 99.3596 167.63H135.885C136.013 167.63 136.099 167.738 136.099 167.846C136.099 167.975 136.013 168.061 135.885 168.061Z" fill="black"/>
<path fill-rule="evenodd" clip-rule="evenodd" d="M113.974 160.336C112.386 160.336 110.626 158.766 110.068 156.808C109.746 155.71 109.875 154.678 110.39 153.968C110.776 153.451 111.356 153.172 112.021 153.172C113.609 153.172 115.347 154.764 115.905 156.7C116.227 157.798 116.12 158.852 115.605 159.54C115.219 160.057 114.639 160.336 113.974 160.336ZM112.021 153.602C111.485 153.602 111.034 153.817 110.734 154.226C110.283 154.807 110.197 155.71 110.476 156.7C110.991 158.465 112.558 159.906 113.974 159.906C114.511 159.906 114.94 159.691 115.262 159.282C115.691 158.701 115.777 157.798 115.498 156.808C115.004 155.044 113.438 153.602 112.021 153.602Z" fill="black"/>
</g>
<defs>
<clipPath id="clip0_538_310">
<rect width="244" height="176" fill="white"/>
</clipPath>
</defs>
</svg>
