<svg width="27" height="31" viewBox="0 0 27 31" fill="none" xmlns="http://www.w3.org/2000/svg">
<path d="M23.0209 10.6733C25.082 10.6733 26.7528 9.00247 26.7528 6.94141C26.7528 4.88035 25.082 3.20953 23.0209 3.20953C20.9599 3.20953 19.2891 4.88035 19.2891 6.94141C19.2891 9.00247 20.9599 10.6733 23.0209 10.6733Z" fill="#FFC727"/>
<path d="M25.7062 21.5627C24.7097 19.9023 24.1837 18.0025 24.1837 16.0666V12.5217C23.8085 12.5994 23.4202 12.642 23.021 12.642C19.8776 12.642 17.3204 10.0848 17.3204 6.94141C17.3204 4.99672 18.3026 3.28063 19.7933 2.25141C18.0269 0.959688 15.8558 0.1875 13.4999 0.1875C7.59912 0.1875 2.81615 4.97047 2.81615 10.8712V16.0688C2.81615 18.0036 2.29006 19.9034 1.29365 21.5627L0.512713 22.8631C-0.227756 24.0958 0.66037 25.6653 2.09865 25.6653H24.9001C26.3372 25.6653 27.2254 24.0969 26.486 22.8642L25.7062 21.5627ZM8.97396 27.633C9.651 29.488 11.413 30.8125 13.4999 30.8125C15.5868 30.8125 17.3488 29.488 18.0258 27.633H8.97396Z" fill="#134E4A"/>
</svg>
