<svg width="27" height="30" viewBox="0 0 27 30" fill="none" xmlns="http://www.w3.org/2000/svg">
<path d="M24.5624 0.750061H4.20522C3.08049 0.750061 2.1695 1.66104 2.1695 2.78578V4.82149H1.15165C0.589789 4.82149 0.133789 5.27749 0.133789 5.83935C0.133789 6.4012 0.589789 6.8572 1.15165 6.8572C2.9787 6.8572 -0.0138002 6.8572 4.20522 6.8572C4.76708 6.8572 5.22307 7.3132 5.22307 7.87506C5.22307 8.43692 4.76708 8.89292 4.20522 8.89292H2.1695V21.1072H1.15165C0.589789 21.1072 0.133789 21.5632 0.133789 22.1251C0.133789 22.6869 0.589789 23.1429 1.15165 23.1429C2.9787 23.1429 -0.0138002 23.1429 4.20522 23.1429C4.76708 23.1429 5.22307 23.5989 5.22307 24.1608C5.22307 24.7226 4.76708 25.1786 4.20522 25.1786H2.1695V27.2143C2.1695 28.3391 3.08049 29.2501 4.20522 29.2501H24.5624C25.6871 29.2501 26.5981 28.3391 26.5981 27.2143V2.78578C26.5981 1.66104 25.6871 0.750061 24.5624 0.750061ZM14.3838 5.83935C16.6322 5.83935 18.4552 7.66233 18.4552 9.91078C18.4552 12.1592 16.6322 13.9822 14.3838 13.9822C12.1353 13.9822 10.3124 12.1592 10.3124 9.91078C10.3124 7.66233 12.1353 5.83935 14.3838 5.83935ZM20.4909 23.1429H8.27665V21.1072C8.27665 17.734 11.0106 15.0001 14.3838 15.0001C17.757 15.0001 20.4909 17.734 20.4909 21.1072V23.1429Z" fill="white" fill-opacity="0.3"/>
</svg>
