<svg width="42" height="28" viewBox="0 0 42 28" fill="none" xmlns="http://www.w3.org/2000/svg">
<g clip-path="url(#clip0_371_9686)">
<path d="M0.000488281 0.00012207H42.0005V28.0001H0.000488281V0.00012207Z" fill="white"/>
<path d="M0.00146484 0H42.0015V2.15322H0.00146484V0ZM0.00146484 4.30643H42.0015V6.45965H0.00146484V4.30643ZM0.00146484 8.61287H42.0015V10.7661H0.00146484V8.61287ZM0.00146484 12.9193H42.0015V15.0725H0.00146484V12.9193ZM0.00146484 17.2339H42.0015V19.3871H0.00146484V17.2339ZM0.00146484 21.5404H42.0015V23.6936H0.00146484V21.5404ZM0.00146484 25.8468H42.0015V28H0.00146484V25.8468Z" fill="#D80027"/>
<path d="M0.000488281 0.00012207H21.0005V15.0726H0.000488281V0.00012207Z" fill="#2E52B2"/>
<path d="M3.91344 11.3722L3.58596 10.3242L3.22572 11.3722H2.14502L3.02104 12.0026L2.69356 13.0505L3.58596 12.4037L4.45379 13.0505L4.11812 12.0026L5.01052 11.3722H3.91344ZM8.5228 11.3722L8.18713 10.3242L7.84327 11.3722H6.76256L7.63859 12.0026L7.3111 13.0505L8.18713 12.4037L9.07134 13.0505L8.74385 12.0026L9.61987 11.3722H8.5228ZM13.1485 11.3722L12.7965 10.3242L12.469 11.3722H11.3637L12.2643 12.0026L11.9205 13.0505L12.7965 12.4037L13.6971 13.0505L13.3532 12.0026L14.2292 11.3722H13.1485ZM17.7497 11.3722L17.4222 10.3242L17.0784 11.3722H15.9895L16.8737 12.0026L16.5462 13.0505L17.4222 12.4037L18.3064 13.0505L17.9544 12.0026L18.855 11.3722H17.7497ZM8.18713 6.16515L7.84327 7.2131H6.76256L7.63859 7.85989L7.3111 8.89147L8.18713 8.25287L9.07134 8.89147L8.74385 7.85989L9.61987 7.2131H8.5228L8.18713 6.16515ZM3.58596 6.16515L3.22572 7.2131H2.14502L3.02104 7.85989L2.69356 8.89147L3.58596 8.25287L4.45379 8.89147L4.11812 7.85989L5.01052 7.2131H3.91344L3.58596 6.16515ZM12.7965 6.16515L12.469 7.2131H11.3637L12.2643 7.85989L11.9205 8.89147L12.7965 8.25287L13.6971 8.89147L13.3532 7.85989L14.2292 7.2131H13.1485L12.7965 6.16515ZM17.4222 6.16515L17.0784 7.2131H15.9895L16.8737 7.85989L16.5462 8.89147L17.4222 8.25287L18.3064 8.89147L17.9544 7.85989L18.855 7.2131H17.7497L17.4222 6.16515ZM3.58596 2.02246L3.22572 3.05404H2.14502L3.02104 3.70082L2.69356 4.74059L3.58596 4.09381L4.45379 4.74059L4.11812 3.70082L5.01052 3.05404H3.91344L3.58596 2.02246ZM8.18713 2.02246L7.84327 3.05404H6.76256L7.63859 3.70082L7.3111 4.74059L8.18713 4.09381L9.07134 4.74059L8.74385 3.70082L9.61987 3.05404H8.5228L8.18713 2.02246ZM12.7965 2.02246L12.469 3.05404H11.3637L12.2643 3.70082L11.9205 4.74059L12.7965 4.09381L13.6971 4.74059L13.3532 3.70082L14.2292 3.05404H13.1485L12.7965 2.02246ZM17.4222 2.02246L17.0784 3.05404H15.9895L16.8737 3.70082L16.5462 4.74059L17.4222 4.09381L18.3064 4.74059L17.9544 3.70082L18.855 3.05404H17.7497L17.4222 2.02246Z" fill="white"/>
</g>
<defs>
<clipPath id="clip0_371_9686">
<rect width="42" height="28" fill="white"/>
</clipPath>
</defs>
</svg>
